/* XPM */
static char *_9dc94fee81a4159ceb7766afdda64341tnD0kqAOzJs5Uru[] = {
/* columns rows colors chars-per-pixel */
"50 50 184 2 ",
"   c None",
".  c #0C0C0C",
"X  c #1A150A",
"o  c #131312",
"O  c #1C1A16",
"+  c #1E1C1B",
"@  c #191714",
"#  c #201E1C",
"$  c #23211E",
"%  c #2A241C",
"&  c #252320",
"*  c #292723",
"=  c #2C2824",
"-  c #2F2E2D",
";  c #332C23",
":  c #312F2C",
">  c #383127",
",  c #34312D",
"<  c #3B352B",
"1  c #3F382F",
"2  c #373634",
"3  c #393733",
"4  c #3A3835",
"5  c #3E3C3A",
"6  c #423B2E",
"7  c #423C32",
"8  c #403F3E",
"9  c #4B4235",
"0  c #4C463C",
"q  c #44413C",
"w  c #544B3C",
"e  c #564A36",
"r  c #5A503D",
"t  c #3F3F40",
"y  c #403F40",
"u  c #454545",
"i  c #484746",
"p  c #4C4B4B",
"a  c #494846",
"s  c #564D40",
"d  c #5D5345",
"f  c #545454",
"g  c #5C5C5C",
"h  c #5F5C57",
"j  c #615646",
"k  c #6C5D44",
"l  c #605648",
"z  c #655C4D",
"x  c #695F4D",
"c  c #675C47",
"v  c #6A5E50",
"b  c #6D614C",
"n  c #75674E",
"m  c #6C6252",
"M  c #64615E",
"N  c #6A645B",
"B  c #716553",
"V  c #776A52",
"C  c #7A6C53",
"Z  c #72675B",
"A  c #756B5B",
"S  c #796D5B",
"D  c #7E715D",
"F  c #605F60",
"G  c #6E6B67",
"H  c #666462",
"J  c #736C62",
"K  c #7A7263",
"L  c #77726D",
"P  c #847356",
"I  c #85755A",
"U  c #8B7B5D",
"Y  c #887758",
"T  c #827664",
"R  c #857965",
"E  c #8E7E62",
"W  c #867B68",
"Q  c #8B7E6B",
"!  c #907F60",
"~  c #857D71",
"^  c #837E79",
"/  c #8F8063",
"(  c #8D816D",
")  c #928265",
"_  c #95866A",
"`  c #97886C",
"'  c #998A6D",
"]  c #8F8470",
"[  c #8A8479",
"{  c #918673",
"}  c #968A74",
"|  c #9B8D72",
" . c #948B7C",
".. c #998E7C",
"X. c #9F9075",
"o. c #9E927D",
"O. c #A29275",
"+. c #A3947C",
"@. c #AB9A7D",
"#. c #A8977B",
"$. c #B09D7F",
"%. c #878384",
"&. c #8A8788",
"*. c #968E80",
"=. c #9D9382",
"-. c #9C958B",
";. c #9E988D",
":. c #9A9794",
">. c #A29683",
",. c #A79B87",
"<. c #A49885",
"1. c #A59884",
"2. c #AD9D82",
"3. c #A39B8B",
"4. c #AB9E8B",
"5. c #A09789",
"6. c #B09F83",
"7. c #A49C90",
"8. c #A89F90",
"9. c #AEA28F",
"0. c #B4A386",
"q. c #B3A58D",
"w. c #B9A98D",
"e. c #ADA495",
"r. c #A5A29C",
"t. c #AEA79C",
"y. c #A6A195",
"u. c #B1A795",
"i. c #B5A993",
"p. c #BBAC93",
"a. c #B0A798",
"s. c #B4AB9B",
"d. c #BAAE9B",
"f. c #BEB095",
"g. c #BEB29C",
"h. c #B4ADA3",
"j. c #B2AEAB",
"k. c #BDB4A4",
"l. c #B6B2AB",
"z. c #B9B6B3",
"x. c #BCB8B4",
"c. c #BFBCB9",
"v. c #C2B397",
"b. c #C0B29D",
"n. c #C1B6A3",
"m. c #C5B9A5",
"M. c #CABBA4",
"N. c #C5BBAA",
"B. c #C9BEAC",
"V. c #C0BEBB",
"C. c #CDC1AD",
"Z. c #D1C3AD",
"A. c #CDC3B2",
"S. c #C4C0BD",
"D. c #D1C6B4",
"F. c #D4C9B6",
"G. c #D9CBB5",
"H. c #D6CBB9",
"J. c #D9CEBC",
"K. c #DDD1BC",
"L. c #E1D4BE",
"P. c #C9C5C2",
"I. c #CBC9C6",
"U. c #CFCDCA",
"Y. c #CCCAC8",
"T. c #C6C4C2",
"R. c #D1CFCD",
"E. c #DED4C2",
"W. c #D2D0CE",
"Q. c #D4D2D0",
"!. c #D6D4D2",
"~. c #DAD8D6",
"^. c #DDDBD9",
"/. c #DFDDDB",
"(. c #DCDBD9",
"). c #D9D7D5",
"_. c #E1D6C3",
"`. c #E3D8C5",
"'. c #E5DBC9",
"]. c #E8DFCD",
"[. c #E0DEDD",
"{. c #EBE1CE",
"}. c #EDE2D0",
"|. c #F0E5D4",
/* pixels */
"                      V.V.                                                                          ",
"                    r.V.P.Y.W.W.U.R.W.                                                              ",
"                    V C W *.t.x.Y.(.(././.(.!.!.                                                    ",
"                      P P U { | { { 3.j.V.U.[././././.!.Q.R.                                        ",
"                      I P U ) | | X.o.o.+.o.{ 7.h.x.T.).(.(.(.).Q.Y.I.                              ",
"                      C P U ! ..o.>.=.>.o.o.o.o.o.} ' ( =.y.j.c.U.!.Q.Q.U.I.c.z.j.                  ",
"                      C P I U +.>.>.>.=.=.=.o.o...` | | | ` ` _ ) ] -.r.j.z.P.S.c.z.:.              ",
"                        P P U ..<.>.>.>.>.+.>.o.` | | _ _ ) ` _ ` _ _ ` | E W ..-.:.N               ",
"                        Y P U ` <.<.<.>.>.>.1.| | ` _ ) _ ) ` _ _ ` ) ` ) | _ ` | T N               ",
"                        C P U ) <.<.>.>.>.>.>.' ` _ _ _ ) _ _ ) _ ) ` ` ` E ` { ` E J J             ",
"                        V P U U >.<.<.<.>.>.| ` ) ` _ ) _ ) ) ) _ _ ) ) | ) ) ) ` ( N J             ",
"                          P Y U +.<.<.<.<.+.' ` ` ) ) ) ) _ ` ` | | ) ) ) ` _ ( _ | N J             ",
"                          P P ! } <.<.<.#.| ` ) ) ) ) ) ) ` ` ` ' ' _ ) / / ) ` ) | m J             ",
"                          C Y ! ` ,.,.<.O.O.` ` ) ) ) ) _ ` ' _ _ _ ) ) E ) / / ) } Z J             ",
"                          C Y U ! <.,.<.' O._ ' ' ) ) ) _ ' ' ' _ ) ! E / ) _ _ U ` S J             ",
"                            Y Y ! >.,.O.O.O.' _ ) ' ' _ ) ) _ ) ) E ) E ) ) / U I I Z K             ",
"                            P P ! ` +.| O.O.' X.' ) ' ) _ ) ) ) / ) / ) ) / / Y P P P C             ",
"                            C k e V _ | ' | ' _ ' ' ) ' ) _ ) ) ) / / Y ) / / P P P C D             ",
"                            j O 2 p a 9 b I _ _ _ ) _ ) ) ) ' / ) / ) ) / _ Y P P U I K             ",
"                              , o * : a p p 7 w n P _ ) ' / ) / ) / / ) _ ) Y P P / R A K           ",
"                                @ = = * $ $ 4 p p u 1 r n U ) ) ) _ ' ' ' Y P P Y / ) Z K           ",
"                            p.q.A w 6 * * & $ $ # $ u p r 0 6 k I ) ` ) ) P P P / / E L [           ",
"                          m.M.b.o.( R K x w , $ $ . o @ + : a p p 2 9 x I _ ) ( } | } L %.          ",
"                      m.C.Z.Z.b.g.d...<.{ ] T v d 1 @ . o o @ O $ 5 p p u - w m ( } | W %.          ",
"                    B.C.Z.s.K.M.n.Z.<.n.o.i.Q } W A S m 0 $ o o 7 b e ; = u a a 5 < d N %.          ",
"                C.B.N.u.e.C.e.F.d.J.e.i.m.3.d.....o.W ( ( D m s { o.E / n ; @ + 2 u u p &.          ",
"              F.B.k.e.3.m.e.e.u.m.B.m.n.3.e.=.,.=...9.o.( 9...} ( 7 = z T O @ + + & $ * z.          ",
"          m.D.N.s.3.3.u.3. .y.s.F._.H.L.F.u.~  .9.....9.i.i.M.9.0 3 $ X 1 % w 1 + # $ #             ",
"        m.A.J.s.k.y.4.y. . .-.F.F.J.k.H.A.B.[ ( *.9.{ ..o.g.d.5 5 s w { { Q } R B s 3 #             ",
"    n.N.C.D.J.N.H.m.e.k.7.7. .B._.`._._.J.e.=.[ <.3. .;.;. .2 4 v x i.Z.M.v.i.1.} W S B B           ",
"  g.N.B.A.D.H.s.s.h.n.s.e.e.7.h.N.A.F.B.N.t.3.e.s.3.=.u.=.H , m B M.G.G.Z.M.v.i.4.>.o.C B           ",
"O.@.q.g.A.D.H.A.N.s.e.C.e.h.A.t.D.H.N.E.C.A.k.A.3.e.A.N.k. .m A D.L.L.K.G.B.M.d.p.q.T B l           ",
"0.w.p.p.w.g.B.K.A.B.k.a.A.A.s.`.h.].N.{.N.E.D.r.K.D.k.'.D...*.F.`.`._.K.G.Z.B.m.g.( D d             ",
"    I @.p.p.f.p.N.A.A.C.A.k.E.F.C.'.k.'.`.k.E.E.A.E.].{.k.H.E.E.K.`._.K.H.F.Z.M.} T j               ",
"      . j } w.f.v.f.g.C.F.H.K.k.`.'.A.E.E.J.'.{.}.`.x.'.E.l.:.t.D.E.E.K.H.G.C.>.Q z                 ",
"            ; A o.q.w.v.i.N.D.'.{.{.{.{.}.}.}.}.E.L F G y.C.E.J.l.;.e.C.H.F.4.Q B                   ",
"                  9 R 2.0.0.f.p.C.H.{.{.{.{.{.H.H F g f f p F :.N.E.J.s.k.k.` S >                   ",
"                      . m | q.w.p.v.g.C.`.{.A.M g F g g f p p u u h ;.k.N.} S 7                     ",
"                            < V | 0.@.0.2.u.N.h.L g f f p p i p u u t q o.D 9                       ",
"                                . w R #.0.0.i.i.A.N.h.G p i i u u u t ..T d                         ",
"                                      . j ) @.0.0.p.i.C.k.-.f u y 8 ..W z                           ",
"                                            < S | 0.@.2.q.i.k.s.~ Q Q x                             ",
"                                                . 9 D #.@.@.2.#.=.( Z                               ",
"                                                      . j E #.#._ S                                 ",
"                                                          . = b I                                   ",
"                                                                                                    ",
"                                                                                                    ",
"                                                                                                    ",
"                                                                                                    ",
"                                                                                                    "
};
