/* XPM */
static char *_772575489a642e58c88aedc5a27f543mtYb3F9WLLIJQyvm[] = {
/* columns rows colors chars-per-pixel */
"50 50 2 1 ",
"  c #ea4ff2",
". c #02d809",
/* pixels */
". . . . . . . . . . . . . . . . . . . . . . . . . ",
" . . . . . . . . . . . . . . . . . . . . . . . . .",
". . . . . . . . . . . . . . . . . . . . . . . . . ",
" . . . . . . . . . . . . . . . . . . . . . . . . .",
". . . . . . . . . . . . . . . . . . . . . . . . . ",
" . . . . . . . . . . . . . . . . . . . . . . . . .",
". . . . . . . . . . . . . . . . . . . . . . . . . ",
" . . . . . . . . . . . . . . . . . . . . . . . . .",
". . . . . . . . . . . . . . . . . . . . . . . . . ",
" . . . . . . . . . . . . . . . . . . . . . . . . .",
". . . . . . . . . . . . . . . . . . . . . . . . . ",
" . . . . . . . . . . . . . . . . . . . . . . . . .",
". . . . . . . . . . . . . . . . . . . . . . . . . ",
" . . . . . . . . . . . . . . . . . . . . . . . . .",
". . . . . . . . . . . . . . . . . . . . . . . . . ",
" . . . . . . . . . . . . . . . . . . . . . . . . .",
". . . . . . . . . . . . . . . . . . . . . . . . . ",
" . . . . . . . . . . . . . . . . . . . . . . . . .",
". . . . . . . . . . . . . . . . . . . . . . . . . ",
" . . . . . . . . . . . . . . . . . . . . . . . . .",
". . . . . . . . . . . . . . . . . . . . . . . . . ",
" . . . . . . . . . . . . . . . . . . . . . . . . .",
". . . . . . . . . . . . . . . . . . . . . . . . . ",
" . . . . . . . . . . . . . . . . . . . . . . . . .",
". . . . . . . . . . . . . . . . . . . . . . . . . ",
" . . . . . . . . . . . . . . . . . . . . . . . . .",
". . . . . . . . . . . . . . . . . . . . . . . . . ",
" . . . . . . . . . . . . . . . . . . . . . . . . .",
". . . . . . . . . . . . . . . . . . . . . . . . . ",
" . . . . . . . . . . . . . . . . . . . . . . . . .",
". . . . . . . . . . . . . . . . . . . . . . . . . ",
" . . . . . . . . . . . . . . . . . . . . . . . . .",
". . . . . . . . . . . . . . . . . . . . . . . . . ",
" . . . . . . . . . . . . . . . . . . . . . . . . .",
". . . . . . . . . . . . . . . . . . . . . . . . . ",
" . . . . . . . . . . . . . . . . . . . . . . . . .",
". . . . . . . . . . . . . . . . . . . . . . . . . ",
" . . . . . . . . . . . . . . . . . . . . . . . . .",
". . . . . . . . . . . . . . . . . . . . . . . . . ",
" . . . . . . . . . . . . . . . . . . . . . . . . .",
". . . . . . . . . . . . . . . . . . . . . . . . . ",
" . . . . . . . . . . . . . . . . . . . . . . . . .",
". . . . . . . . . . . . . . . . . . . . . . . . . ",
" . . . . . . . . . . . . . . . . . . . . . . . . .",
". . . . . . . . . . . . . . . . . . . . . . . . . ",
" . . . . . . . . . . . . . . . . . . . . . . . . .",
". . . . . . . . . . . . . . . . . . . . . . . . . ",
" . . . . . . . . . . . . . . . . . . . . . . . . .",
". . . . . . . . . . . . . . . . . . . . . . . . . ",
" . . . . . . . . . . . . . . . . . . . . . . . . ."
};
