/* XPM */
static char *ee1b697670af4ecdeb6ab81d752d6e5f3ZjIrPa2DezKyczJ[] = {
/* columns rows colors chars-per-pixel */
"50 50 173 2 ",
"   c None",
".  c #663D17",
"X  c #6D4817",
"o  c #6B411C",
"O  c #774B1E",
"+  c #7C4C1B",
"@  c #7B501B",
"#  c #714728",
"$  c #7B5225",
"%  c #7D552B",
"&  c #7B582F",
"*  c #785533",
"=  c #7F5D3B",
"-  c #825019",
";  c #835422",
":  c #8C5923",
">  c #855B2B",
",  c #825A37",
"<  c #835E38",
"1  c #905834",
"2  c #93602C",
"3  c #8E6435",
"4  c #87643C",
"5  c #8C643B",
"6  c #8C693E",
"7  c #966837",
"8  c #916C3C",
"9  c #856340",
"0  c #8E6B43",
"q  c #8A6F4B",
"w  c #946B45",
"e  c #8E724F",
"r  c #957146",
"t  c #987144",
"y  c #96724B",
"u  c #9C764D",
"i  c #9C784C",
"p  c #8C7355",
"a  c #907753",
"s  c #9C7A54",
"d  c #96775E",
"f  c #967C5A",
"g  c #9B7E5B",
"h  c #A27A4B",
"j  c #A37D53",
"k  c #A87E56",
"l  c #A07E5C",
"z  c #977E65",
"x  c #9B815D",
"c  c #A58056",
"v  c #AB8254",
"b  c #A4835C",
"n  c #AD8559",
"m  c #AC895A",
"M  c #9F8461",
"N  c #9F856A",
"B  c #9E896A",
"V  c #998B76",
"C  c #A38562",
"Z  c #A58963",
"A  c #AC8B63",
"S  c #A1866A",
"D  c #A58B6C",
"F  c #AC8D6A",
"G  c #B28E64",
"H  c #A6906F",
"J  c #AC926D",
"K  c #B2936C",
"L  c #B8946C",
"P  c #B5986E",
"I  c #BB9B6F",
"U  c #B29265",
"Y  c #A58C74",
"T  c #A98F71",
"R  c #AB8E7F",
"E  c #AD9474",
"W  c #AE9875",
"Q  c #AA927C",
"!  c #AD9A7C",
"~  c #B39573",
"^  c #B49A74",
"/  c #BB9C75",
"(  c #B69478",
")  c #B39C7B",
"_  c #BA9E7B",
"`  c #BC927C",
"'  c #BCA27D",
"]  c #C2A476",
"[  c #C1A47F",
"{  c #A49986",
"}  c #A99B85",
"|  c #A79C89",
" . c #AA9E8B",
".. c #B59F82",
"X. c #BE9D84",
"o. c #ACA18E",
"O. c #B6A185",
"+. c #BBA484",
"@. c #B3A38B",
"#. c #BCA589",
"$. c #BFAA8C",
"%. c #AFA491",
"&. c #ACA19A",
"*. c #B1A693",
"=. c #BEA795",
"-. c #B4A994",
";. c #BBAC94",
":. c #B3A79D",
">. c #B5AD9D",
",. c #B9AE9B",
"<. c #BFB097",
"1. c #BCB19D",
"2. c #B2ACA1",
"3. c #BEB3A0",
"4. c #BAB7AE",
"5. c #BDB9AE",
"6. c #BCBAB1",
"7. c #C1A681",
"8. c #C2AC8D",
"9. c #C4AD92",
"0. c #C0AF9C",
"q. c #C4B094",
"w. c #CFBA97",
"e. c #C5B49B",
"r. c #C9B69D",
"t. c #C7B89F",
"y. c #CFBA9E",
"u. c #C3B3A2",
"i. c #C5B9A4",
"p. c #CBBAA3",
"a. c #C4BBAA",
"s. c #CCBDAB",
"d. c #D1BFAD",
"f. c #D2BBB6",
"g. c #CCC1AE",
"h. c #D3C3AC",
"j. c #C6C1B4",
"k. c #CCC3B3",
"l. c #C7C5BC",
"z. c #CCC6BA",
"x. c #CFCBBE",
"c. c #D2C5B3",
"v. c #D3C9B6",
"b. c #D4CBBC",
"n. c #D8CEBC",
"m. c #D9CBB2",
"M. c #BABEC0",
"N. c #C5C5C7",
"B. c #CECCC4",
"V. c #D4CDC3",
"C. c #DCC8C1",
"Z. c #D4CCCA",
"A. c #DECBCC",
"S. c #CED0CD",
"D. c #D5D0C4",
"F. c #DAD3C5",
"G. c #D4D3CB",
"H. c #DAD6CB",
"J. c #DCD8CE",
"K. c #CFD4D5",
"L. c #D2D6D5",
"P. c #DFD7D7",
"I. c #D6D8D4",
"U. c #DDDAD2",
"Y. c #D2D7D8",
"T. c #D5D9DA",
"R. c #D9DBDC",
"E. c #E0D7C5",
"W. c #E1DBCE",
"Q. c #E1DFD9",
"!. c #E3E2DC",
"~. c #E6E6E2",
"^. c #E8E8E3",
/* pixels */
"                                                                                                    ",
"                                                                                                    ",
"                                                ( ~ D ~ C                                           ",
"                                        ` b w b F ~ L ( * < ~                                       ",
"                                      X.y w / ( A G G g . s l                                       ",
"                                    X.s S ~ s D s L [ w A k 5                                       ",
"                                    X.u ) 9 p Y u F Z u 5 % > +                                     ",
"                                  e.Z d C Y X.+._ ~ s y b h s - 1                                   ",
"                              9.! D N E S g.n.g.s.9.#.J A = Z 7 k                                   ",
"                            =.9.z C g Q V.b.k.u.r.9._ ^ Z k G h k l                                 ",
"                            =.#.8.L T H.F.b.h.s.g.e.[ P K G n v v h                                 ",
"                              p.L i u.b.q.@.a.b.p.C b ^ ~ Z G u n                                   ",
"                              e.A % g.u.k.e.;.F.' % F Z m w w , 3                                   ",
"                              g y # x.D.s.t.F.F.' 3 +.K s 6 % o O                                   ",
"                              D ( Y W.U.F.n.W.n.q.m G K m a ; % ;                                   ",
"                              ;...,.U.J.F.v.H.n.+.U / 7.' b : j t                                   ",
"                            Q <.e.a.Z.J.b.k.v.h.6 i P ' ^ x 2 ' j                                   ",
"                            } s.@.x.G.G.b.n.F.p.' J +.' W x + v G                                   ",
"                              } c.V.G.H.F.n.O.m b P $.^ W x @ i k                                   ",
"                              u.N 5.G.J.F.e.y.8.' K ' W ' e @ > 5                                   ",
"                              p.x | D.G.J.W.h.8.' P ' W ) q & X                                     ",
"                              h._ D B.G.U.W.m.w.' I J W ) e 6 w                                     ",
"                                ) b a.z.D.n.t.$.U U A W ' Z 3                                       ",
"                                #.A 2.2.>.o.B x x b H W W J                                         ",
"                                  F &.S.>.V p a x B H J P ^                                         ",
"                                  ~  .T.I.S.l.1.@.W ) W P )                                         ",
"                                      G.K.I.G.x.g.1.t.8.+.'                                         ",
"                                      Z.I.I.I.x.j.g.g.g.q.'                                         ",
"                                        G.I.S.j.j.G.c.p.$.' '                                       ",
"                                        L.L.B.l.G.H.v.p.8.+.8.'                                     ",
"                                        S.T.I.U.J.F.v.p.$.+.q.$.                                    ",
"                                        D.G.G.H.J.H.b.p.8.O.w.+.                                    ",
"                                        C.I.G.I.F.s.v.r.+.+.9.                                      ",
"                                        Z.I.G.J.r.u.e.+.$.)                                         ",
"                                      :.H.H.F.U.c.r.....;.-.                                        ",
"                                      C.V.n.v.J.s.G.J.H.x.t.                                        ",
"                                f.f.a.H.~.^.!.!.Q.!.U.H.k.i.O.! @.                                  ",
"                                N.R.Y.L.B.B.b.V.V.V.b.x.g.s.a.g.a.3.,.-.o.                          ",
"                                Z.Y.Y.R.R.R.T.L.C.l.a.3.1.-.-.%.*.*.*.%.*.                          ",
"                                A.Y.Y.T.T.R.R.R.R.R.5.*.*.*.*.*.*.*.%.%.o.                          ",
"                                M.Y.Y.Y.Y.T.T.T.R.R.5.*.*.*.*.%.%.%.%.o.o.                          ",
"                                N.Y.Y.Y.Y.Y.T.Y.T.T.6.%.%.%.%.%.%.%.o.o.o.                          ",
"                                A.K.K.L.Y.Y.Y.T.Y.T.6.%.%.%.o.o.o.o.o. . .                          ",
"                                  Y.L.K.Y.Y.Y.Y.K.T.6. .o.o.o.o.o. . .|  .                          ",
"                                    T.T.Y.K.L.L.Y.Y.6.|  . . . .| | | |  .                          ",
"                                        T.T.Y.L.K.Y.4.{ | | | | | | | |                             ",
"                                            L.T.K.K.4.{ } | {  .o.                                  ",
"                                                R.T.4.{  . .                                        ",
"                                                                                                    ",
"                                                                                                    "
};
