/* XPM */
static char *ebc4da420cfa4f39cace4ee50cfbf619XF0ac7pUDjN50d8E[] = {
/* columns rows colors chars-per-pixel */
"50 50 173 2 ",
"   c None",
".  c #663D17",
"X  c #6D4817",
"o  c #6B411C",
"O  c #774B1E",
"+  c #7C4C1B",
"@  c #7B501B",
"#  c #714728",
"$  c #7B5225",
"%  c #7D552B",
"&  c #7B582F",
"*  c #785533",
"=  c #7F5D3B",
"-  c #825019",
";  c #835422",
":  c #8C5923",
">  c #855B2B",
",  c #825A37",
"<  c #835E38",
"1  c #905834",
"2  c #93602C",
"3  c #8E6435",
"4  c #87643C",
"5  c #8C643B",
"6  c #8C693E",
"7  c #966837",
"8  c #916C3C",
"9  c #856340",
"0  c #8E6B43",
"q  c #8A6F4B",
"w  c #946B45",
"e  c #8E724F",
"r  c #957146",
"t  c #987144",
"y  c #96724B",
"u  c #9C764D",
"i  c #9C784C",
"p  c #8C7355",
"a  c #907753",
"s  c #9C7A54",
"d  c #96775E",
"f  c #967C5A",
"g  c #9B7E5B",
"h  c #A27A4B",
"j  c #A37D53",
"k  c #A87E56",
"l  c #A07E5C",
"z  c #977E65",
"x  c #9B815D",
"c  c #A58056",
"v  c #AB8254",
"b  c #A4835C",
"n  c #AD8559",
"m  c #AC895A",
"M  c #9F8461",
"N  c #9F856A",
"B  c #9E896A",
"V  c #998B76",
"C  c #A38562",
"Z  c #A58963",
"A  c #AC8B63",
"S  c #A1866A",
"D  c #A58B6C",
"F  c #AC8D6A",
"G  c #B28E64",
"H  c #A6906F",
"J  c #AC926D",
"K  c #B2936C",
"L  c #B8946C",
"P  c #B5986E",
"I  c #BB9B6F",
"U  c #B29265",
"Y  c #A58C74",
"T  c #A98F71",
"R  c #AB8E7F",
"E  c #AD9474",
"W  c #AE9875",
"Q  c #AA927C",
"!  c #AD9A7C",
"~  c #B39573",
"^  c #B49A74",
"/  c #BB9C75",
"(  c #B69478",
")  c #B39C7B",
"_  c #BA9E7B",
"`  c #BC927C",
"'  c #BCA27D",
"]  c #C2A476",
"[  c #C1A47F",
"{  c #A49986",
"}  c #A99B85",
"|  c #A79C89",
" . c #AA9E8B",
".. c #B59F82",
"X. c #BE9D84",
"o. c #ACA18E",
"O. c #B6A185",
"+. c #BBA484",
"@. c #B3A38B",
"#. c #BCA589",
"$. c #BFAA8C",
"%. c #AFA491",
"&. c #ACA19A",
"*. c #B1A693",
"=. c #BEA795",
"-. c #B4A994",
";. c #BBAC94",
":. c #B3A79D",
">. c #B5AD9D",
",. c #B9AE9B",
"<. c #BFB097",
"1. c #BCB19D",
"2. c #B2ACA1",
"3. c #BEB3A0",
"4. c #BAB7AE",
"5. c #BDB9AE",
"6. c #BCBAB1",
"7. c #C1A681",
"8. c #C2AC8D",
"9. c #C4AD92",
"0. c #C0AF9C",
"q. c #C4B094",
"w. c #CFBA97",
"e. c #C5B49B",
"r. c #C9B69D",
"t. c #C7B89F",
"y. c #CFBA9E",
"u. c #C3B3A2",
"i. c #C5B9A4",
"p. c #CBBAA3",
"a. c #C4BBAA",
"s. c #CCBDAB",
"d. c #D1BFAD",
"f. c #D2BBB6",
"g. c #CCC1AE",
"h. c #D3C3AC",
"j. c #C6C1B4",
"k. c #CCC3B3",
"l. c #C7C5BC",
"z. c #CCC6BA",
"x. c #CFCBBE",
"c. c #D2C5B3",
"v. c #D3C9B6",
"b. c #D4CBBC",
"n. c #D8CEBC",
"m. c #D9CBB2",
"M. c #BABEC0",
"N. c #C5C5C7",
"B. c #CECCC4",
"V. c #D4CDC3",
"C. c #DCC8C1",
"Z. c #D4CCCA",
"A. c #DECBCC",
"S. c #CED0CD",
"D. c #D5D0C4",
"F. c #DAD3C5",
"G. c #D4D3CB",
"H. c #DAD6CB",
"J. c #DCD8CE",
"K. c #CFD4D5",
"L. c #D2D6D5",
"P. c #DFD7D7",
"I. c #D6D8D4",
"U. c #DDDAD2",
"Y. c #D2D7D8",
"T. c #D5D9DA",
"R. c #D9DBDC",
"E. c #E0D7C5",
"W. c #E1DBCE",
"Q. c #E1DFD9",
"!. c #E3E2DC",
"~. c #E6E6E2",
"^. c #E8E8E3",
/* pixels */
"                                                                                                    ",
"                                                                                                    ",
"                                          C E D ~ (                                                 ",
"                                      ~ < * ( L ~ F b t l `                                         ",
"                                      b u . l U G A _ ( w y X.                                      ",
"                                      4 k F w [ K s D s ~ S s X.                                    ",
"                                    - > % 5 u Z F u Y p 9 ) u ..                                    ",
"                                  1 - u s b w s ~ _ #.X.T l d A r.                                  ",
"                                  k 7 Z < A J #.9.s.g.n.d.N E N S ! 9.                              ",
"                                j k h G j Z ^ _ 9.p.e.k.b.V.Q g C z 9.=.                            ",
"                                h v k n F K ^ ' e.g.s.c.n.F.F.Q P 8.#.=.                            ",
"                                  n h F m ^ P C b t.b.i.@.;.v.u.h ~ p.                              ",
"                                  3 , w 0 A Z F % ' F.q.<.k.u.k.% G e.                              ",
"                                  O . % 6 s P [ 3 ' H.C.e.k.D.z.# y g                               ",
"                                  ; ; ; s Z K U m q.F.W.V.F.U.U.Y ~ D                               ",
"                                  y j : b ' 7.I U ' n.H.m.V.J.U.0...;.                              ",
"                                  j ] 2 x ' ' P i 6 p.v.g.b.J.G.a.1.,.Q                             ",
"                                  A n O x W W ' J ' y.E.n.D.D.G.b.O.s.R                             ",
"                                  k u + x W W $.P b b O.n.H.H.G.D.z.}                               ",
"                                  5 > $ q ' ) ' P ' q.w.e.F.J.G.a.S u.                              ",
"                                    X & q _ W ^ P ' 8.g.J.J.J.G.| M p.                              ",
"                                    w 8 e ' W P I ] w.m.W.J.G.B.D _ d.                              ",
"                                      5 M ) ) Z m P $.w.D.B.z.5.b )                                 ",
"                                        J W W J b x x B o.-.>.>.A #.                                ",
"                                        ^ W J H B x a a V 2.S.&.K                                   ",
"                                        ^ P E ) ! @.1.l.S.L.I.o.E                                   ",
"                                        ' +.8.i.i.g.z.G.I.L.G.                                      ",
"                                        ' q.g.h.g.j.x.G.I.I.G.                                      ",
"                                      ' O.8.p.c.D.j.j.D.G.L.                                        ",
"                                    / 8.O.8.p.v.I.G.l.B.L.L.                                        ",
"                                    8.9.#.8.p.m.F.U.I.I.Y.G.                                        ",
"                                    +.r...9.p.v.H.U.G.I.G.V.                                        ",
"                                      9.#.#.e.c.s.F.U.G.J.V.                                        ",
"                                        ) $.#.e.e.u.J.H.P.V.                                        ",
"                                        -.-.@.O.t.c.U.V.H.H.:.                                      ",
"                                        e.b.F.J.F.s.U.v.D.V.C.                                      ",
"                                  @.! O.i.k.H.U.!.Q.Q.~.^.~.U.a.f.f.                                ",
"                          o.-.,.1.5.g.a.a.g.x.b.V.V.V.b.B.B.G.T.T.N.                                ",
"                          %.*.*.*.*.%.-.;.1.3.a.z.Z.L.R.R.T.T.T.T.Z.                                ",
"                          o.%.%.%.-.-.*.%.*.*.6.R.T.T.R.T.R.Y.Y.Y.A.                                ",
"                          o.%.%.*.*.*.*.*.*.*.a.T.T.T.T.T.T.T.Y.Y.M.                                ",
"                          o.o.o.o.o.o.*.*.o.*.5.T.T.Y.T.Y.Y.Y.Y.Y.N.                                ",
"                           . .o.o.o.o.o.o.o.o.6.T.T.Y.Y.Y.Y.Y.K.K.A.                                ",
"                           . . .| o.o.o.o.o.o.6.Y.Y.Y.Y.Y.Y.K.L.Y.                                  ",
"                           .| | | | o.|  . . .6.Y.Y.Y.Y.L.L.Y.T.                                    ",
"                            | | | | | | | | { 4.Y.Y.K.Y.T.T.                                        ",
"                                   . .{ | { { 4.L.L.Y.I.                                            ",
"                                         .o.{ 6.Y.P.                                                ",
"                                                                                                    ",
"                                                                                                    "
};
