/* XPM */
static char *_27e9c5eeebe450b999f75af08307931P73MOfEeCVhB2wJX[] = {
/* columns rows colors chars-per-pixel */
"50 50 198 2 ",
"   c None",
".  c #0E0E0E",
"X  c gray6",
"o  c #101010",
"O  c #111111",
"+  c gray7",
"@  c #131313",
"#  c gray8",
"$  c #151515",
"%  c #161616",
"&  c gray9",
"*  c #181818",
"=  c #191919",
"-  c gray10",
";  c #1B1B1B",
":  c gray11",
">  c #1D1D1D",
",  c #1E1E1E",
"<  c gray12",
"1  c #202020",
"2  c gray13",
"3  c #222222",
"4  c #232323",
"5  c gray14",
"6  c #252525",
"7  c gray15",
"8  c #272727",
"9  c #282828",
"0  c gray16",
"q  c #2A2A2A",
"w  c gray17",
"e  c #2C2C2C",
"r  c #2D2D2D",
"t  c gray18",
"y  c #2F2F2F",
"u  c gray19",
"i  c #313131",
"p  c #323232",
"a  c gray20",
"s  c #343434",
"d  c #353535",
"f  c gray21",
"g  c #373737",
"h  c gray22",
"j  c #393939",
"k  c #3A3A3A",
"l  c gray23",
"z  c #3C3C3C",
"x  c gray24",
"c  c #3E3E3E",
"v  c gray25",
"b  c #414141",
"n  c gray26",
"m  c #434343",
"M  c #444444",
"N  c gray27",
"B  c #464646",
"V  c gray28",
"C  c #484848",
"Z  c #494949",
"A  c gray29",
"S  c #4B4B4B",
"D  c #4C4C4C",
"F  c gray30",
"G  c #4E4E4E",
"H  c #505050",
"J  c #515151",
"K  c gray32",
"L  c #535353",
"P  c gray33",
"I  c #555555",
"U  c #565656",
"Y  c #585858",
"T  c gray35",
"R  c #5A5A5A",
"E  c #5B5B5B",
"W  c gray36",
"Q  c #5D5D5D",
"!  c gray37",
"~  c #5F5F5F",
"^  c #606060",
"/  c #626262",
"(  c gray39",
")  c #646464",
"_  c #656565",
"`  c gray40",
"'  c #676767",
"]  c #686868",
"[  c DimGray",
"{  c #6A6A6A",
"}  c gray42",
"|  c #6C6C6C",
" . c gray43",
".. c #6F6F6F",
"X. c gray44",
"o. c #717171",
"O. c #727272",
"+. c gray45",
"@. c #747474",
"#. c gray46",
"$. c #767676",
"%. c #777777",
"&. c gray47",
"*. c #797979",
"=. c gray48",
"-. c #7B7B7B",
";. c #7C7C7C",
":. c #7E7E7E",
">. c gray50",
",. c #808080",
"<. c #818181",
"1. c gray51",
"2. c #848484",
"3. c #888888",
"4. c gray54",
"5. c #8B8B8B",
"6. c gray55",
"7. c gray56",
"8. c #909090",
"9. c #929292",
"0. c #939393",
"q. c gray59",
"w. c #979797",
"e. c #989898",
"r. c gray60",
"t. c #9B9B9B",
"y. c gray61",
"u. c #9D9D9D",
"i. c gray63",
"p. c #A2A2A2",
"a. c #A5A5A5",
"s. c gray66",
"d. c #AEAEAE",
"f. c #B1B1B1",
"g. c gray70",
"h. c #B4B4B4",
"j. c gray71",
"k. c #B6B6B6",
"l. c #B7B7B7",
"z. c gray72",
"x. c #BBBBBB",
"c. c #BCBCBC",
"v. c gray",
"b. c gray75",
"n. c #C0C0C0",
"m. c gray76",
"M. c #C3C3C3",
"N. c #CBCBCB",
"B. c gray80",
"V. c #CDCDCD",
"C. c gray81",
"Z. c #D0D0D0",
"A. c gray82",
"S. c #D2D2D2",
"D. c LightGray",
"F. c gray83",
"G. c #D5D5D5",
"H. c gray84",
"J. c #D7D7D7",
"K. c #D8D8D8",
"L. c #DADADA",
"P. c gray86",
"I. c gainsboro",
"U. c #DDDDDD",
"Y. c gray87",
"T. c #DFDFDF",
"R. c gray88",
"E. c #E1E1E1",
"W. c #E2E2E2",
"Q. c gray89",
"!. c #E4E4E4",
"~. c gray90",
"^. c #E6E6E6",
"/. c #E7E7E7",
"(. c gray91",
"). c #E9E9E9",
"_. c #EAEAEA",
"`. c gray92",
"'. c #ECECEC",
"]. c gray93",
"[. c #EEEEEE",
"{. c #EFEFEF",
"}. c gray94",
"|. c #F1F1F1",
" X c gray95",
".X c #F3F3F3",
"XX c #F4F4F4",
"oX c gray96",
"OX c #F6F6F6",
"+X c gray97",
"@X c #F8F8F8",
"#X c #F9F9F9",
"$X c gray98",
"%X c #FBFBFB",
"&X c gray99",
"*X c #FDFDFD",
"=X c #FEFEFE",
"-X c white",
/* pixels */
"                                                                                                    ",
"                                                                                                    ",
"                                                                                                    ",
"                                                                                                    ",
"                                      - - < - < < - - - & & &                                       ",
"                                5 3 < < < < 3 3 < < < - - - < 3 e k                                 ",
"                            p p p 5 5 3 < 3 3 3 < < < - - < 3 q k C P K                             ",
"                          g g k g e 5 5 < 3 3 3 3 3 < - < < 5 g V P ( W K                           ",
"                      5 e g k x k p q 5 < 3 3 3 < < < < < 3 e x D W ' W K x e                       ",
"                    5 q e g k x k g e 5 3 3 3 3 < < < - < 3 g C E ' ' E C g 5 -                     ",
"                  3 5 e e g g k k g e 5 3 < 3 < < < < < 3 q x K ( ' W K x p 3 - &                   ",
"                3 3 5 q q e p g g g p q 3 < < < < < < < 5 g C W ' ' E V p 5 < - & +                 ",
"                < 3 5 q q q e p p g p e 5 3 < < < < 3 5 q x K ( ' W D k q < - - & & .               ",
"              3 3 5 5 5 5 q q e p g g p q 3 < < - < < 5 g V W ' ( K x e 3 < - & & + +               ",
"            3 3 3 5 5 5 5 q 5 q e p p p e 5 < < < < 5 q k K ( ' E n p 5 < - - & & & & .             ",
"            3 5 3 5 5 5 5 5 5 q q e p g p 5 3 < 3 3 5 e V E ( W C g q < < - - & & & & +             ",
"          3 3 3 5 5 5 5 5 5 5 q 5 q e g p p k V C K C V K W ( K x e 3 < - - - & & & & + +           ",
"          3 3 3 5 5 5 5 5 5 5 5 5 5 5 g V ( =.6.0.t.8.,. .( P x e 5 < < - - & & & & & & +           ",
"          3 3 3 5 5 5 5 5 5 5 5 3 3 q K =.i.n.A.J.K.A.c.a.2.E g 5 3 < - - - & & & & & & & .         ",
"        5 3 < < 3 3 5 5 5 q q 5 3 5 C ,.j.K.'.XXXXXX X(.J.g.>.C 5 < - - - - & & - - - - - +         ",
"        q 3 3 3 3 < 3 3 5 5 5 5 3 g O.j.T.XX*X*X*X%X%XXX(.A.s.O.k < - & & - & - - - - - - &         ",
"        5 5 3 3 3 3 < 3 5 5 q 5 q K t.K.XX*X*X*X%X%XXXXX'.T.M.6.P 5 - & & & & - & - - - & +         ",
"        q 5 5 5 3 3 3 3 3 3 5 5 g @.c.'.*X*X*X*X%XXXXX'.(.E.A.s. .e - & - & & & & - & & & & .       ",
"        q 5 5 5 3 3 3 < 3 3 3 5 n 5.C.XX*X*X*X%X X X'.(.^.T.J.j.=.k & & & & & & & & & - - + .       ",
"        q 5 5 5 5 3 3 < 3 < < 3 C 0.K.XX*X*X*XXX(.(.(.(.E.T.J.j.,.n - & & & & & & & - - & + +       ",
"        q 5 5 5 5 3 3 < 3 < 3 5 C 8.J.XX*X*X%X X(.(.^.^.E.K.A.j.>.n - - & & & & - & & - - & +       ",
"        q 5 q 5 5 5 3 3 3 3 3 5 V 2.C. X*X*XXXXX'.(.(.^.T.J.C.d.@.k - - - & - & & & - - - & +       ",
"        q q 5 5 5 5 5 5 3 3 3 3 k @.c.(.%X%X%XXX X(.^.E.K.J.n.y.( e - - - - - & & - & & & & .       ",
"        e 5 5 q 5 5 5 5 5 3 3 < q E t.A. XXX%X X'.(.E.T.K.C.g.,.C 5 - - - - - - - & & - & +         ",
"        e q 5 5 5 5 5 5 3 3 3 < 3 k O.g.K.'. X'.(.^.E.K.C.x.0.( e - - - - - - - - - & & & +         ",
"        e q 5 5 5 5 5 5 3 3 3 < 3 5 D ,.j.J.E.^.E.T.J.N.j.t. .x < - & - - - - - - - - & & .         ",
"          q q 5 5 5 5 5 3 5 3 3 < 3 g W 2.i.x.n.M.c.g.a.5.] V 3 - - - - - - - - - - - & & +         ",
"          e q 5 5 q q 5 5 5 5 3 5 e V E ] O.=.,.5.,.=.] P x e 3 < < < - < - - - - - - & &           ",
"          e q q q 5 5 5 5 5 5 5 e x P ] ] E V V V n x g e e e 5 3 < < < < - - - - - - & +           ",
"            q q 5 5 5 5 5 5 5 e k D '  .' D g 5 5 5 3 5 5 e e e 5 3 < < 3 < < - - - - & +           ",
"            e q q q 5 5 5 5 q k C W  . .W n q 5 3 5 5 5 q e p e e 5 3 3 < < < - - - & +             ",
"              q q q 5 5 q q g n E ] @.' K k q 5 5 5 q 5 q q e g p q 5 5 3 3 < < - - &               ",
"                q 5 q 5 e p n P ] @.O.( V g 5 5 5 5 5 5 5 5 e p g e e 5 3 3 < < - & +               ",
"                5 q q q p x K ' O.=. .P x e 5 5 5 5 5 5 5 5 e p p p e q 3 3 < < - &                 ",
"                  q q p x D ( O.>.@.( C g q 5 3 3 5 5 5 5 q q e p g p e q 3 < - &                   ",
"                    p k V W O.>.>. .P n p 5 3 < 3 3 3 3 5 5 5 q p g g p q 5 < &                     ",
"                      n K ] =.>.@.' D k e 5 3 3 3 3 3 3 3 3 5 q e p p p e 3 -                       ",
"                           .=.=. .E n g q 5 3 < 3 < 3 3 3 3 3 3 q p p e q 3                         ",
"                            O.O.( D k e q 3 3 < < < < < 3 < 3 3 5 q q q                             ",
"                                K n p 5 3 < < < < < < < < < - < < <                                 ",
"                                      3 < < - - - - - - - - & &                                     ",
"                                                  &                                                 ",
"                                                                                                    ",
"                                                                                                    ",
"                                                                                                    "
};
