/* XPM */
static char *_67b5f7d1da24708d58d67ad5d7e2feeoFqGJlbAaKkOY7Gx[] = {
/* columns rows colors chars-per-pixel */
"50 50 189 2 ",
"   c None",
".  c black",
"X  c gray2",
"o  c gray3",
"O  c #090909",
"+  c gray4",
"@  c #0B0B0B",
"#  c #0C0C0C",
"$  c gray5",
"%  c #0E0E0E",
"&  c gray6",
"*  c #101010",
"=  c #111111",
"-  c gray7",
";  c #131313",
":  c gray8",
">  c #151515",
",  c #161616",
"<  c gray9",
"1  c #181818",
"2  c #191919",
"3  c gray10",
"4  c #1B1B1B",
"5  c gray11",
"6  c #1D1D1D",
"7  c #1E1E1E",
"8  c gray12",
"9  c #202020",
"0  c gray13",
"q  c #222222",
"w  c #232323",
"e  c gray14",
"r  c #252525",
"t  c gray15",
"y  c #272727",
"u  c #282828",
"i  c gray16",
"p  c #2A2A2A",
"a  c gray17",
"s  c #2C2C2C",
"d  c #2D2D2D",
"f  c gray18",
"g  c #2F2F2F",
"h  c gray19",
"j  c #313131",
"k  c #323232",
"l  c gray20",
"z  c #343434",
"x  c #353535",
"c  c gray21",
"v  c #373737",
"b  c gray22",
"n  c #393939",
"m  c #3A3A3A",
"M  c gray23",
"N  c #3C3C3C",
"B  c gray24",
"V  c #3E3E3E",
"C  c #3F3F3F",
"Z  c gray25",
"A  c #414141",
"S  c gray26",
"D  c #434343",
"F  c #444444",
"G  c gray27",
"H  c #464646",
"J  c gray28",
"K  c #484848",
"L  c #494949",
"P  c gray29",
"I  c #4B4B4B",
"U  c #4C4C4C",
"Y  c gray30",
"T  c gray31",
"R  c #505050",
"E  c #515151",
"W  c gray32",
"Q  c #535353",
"!  c gray33",
"~  c #555555",
"^  c #565656",
"/  c gray34",
"(  c #585858",
")  c gray35",
"_  c #5A5A5A",
"`  c #5B5B5B",
"'  c gray36",
"]  c #5D5D5D",
"[  c gray37",
"{  c #5F5F5F",
"}  c #606060",
"|  c gray38",
" . c #626262",
".. c gray39",
"X. c #646464",
"o. c #656565",
"O. c #676767",
"+. c #686868",
"@. c DimGray",
"#. c #6A6A6A",
"$. c gray42",
"%. c #6C6C6C",
"&. c #6D6D6D",
"*. c gray43",
"=. c #6F6F6F",
"-. c gray44",
";. c #717171",
":. c #727272",
">. c gray46",
",. c #767676",
"<. c #777777",
"1. c gray47",
"2. c #797979",
"3. c gray48",
"4. c #7B7B7B",
"5. c #7C7C7C",
"6. c gray49",
"7. c #7E7E7E",
"8. c gray50",
"9. c #808080",
"0. c #818181",
"q. c gray51",
"w. c #838383",
"e. c #848484",
"r. c gray53",
"t. c #8D8D8D",
"y. c #929292",
"u. c gray59",
"i. c gray62",
"p. c gray65",
"a. c #A9A9A9",
"s. c #AAAAAA",
"d. c gray67",
"f. c #AFAFAF",
"g. c gray70",
"h. c gray71",
"j. c gray72",
"k. c gray74",
"l. c gray75",
"z. c #C0C0C0",
"x. c #C3C3C3",
"c. c gray77",
"v. c #C5C5C5",
"b. c #C6C6C6",
"n. c #C8C8C8",
"m. c #CBCBCB",
"M. c #CDCDCD",
"N. c gray82",
"B. c #D2D2D2",
"V. c LightGray",
"C. c #D5D5D5",
"Z. c #D7D7D7",
"A. c gray85",
"S. c #DADADA",
"D. c gainsboro",
"F. c #DDDDDD",
"G. c gray87",
"H. c #DFDFDF",
"J. c gray88",
"K. c #E1E1E1",
"L. c #E2E2E2",
"P. c gray89",
"I. c #E4E4E4",
"U. c gray90",
"Y. c #E6E6E6",
"T. c #E7E7E7",
"R. c gray91",
"E. c #E9E9E9",
"W. c #EAEAEA",
"Q. c gray92",
"!. c #ECECEC",
"~. c gray93",
"^. c #EEEEEE",
"/. c #EFEFEF",
"(. c #F1F1F1",
"). c gray95",
"_. c #F3F3F3",
"`. c #F4F4F4",
"'. c gray96",
"]. c #F6F6F6",
"[. c gray97",
"{. c #F8F8F8",
"}. c #F9F9F9",
"|. c gray98",
" X c #FBFBFB",
".X c gray99",
"XX c #FDFDFD",
"oX c #FEFEFE",
"OX c white",
/* pixels */
"                                                                                                    ",
"                                                                                                    ",
"                                                                                                    ",
"                                                                                                    ",
"                                      d u r u u u u d u d l l                                       ",
"                                W V l d r r u u u u u u r r r u d l                                 ",
"                            &.>.O.Y M d u r r u u r u r r r r r u u u l                             ",
"                          &.8.r.>.! M d u 0 r r r r u r 0 r r r r r u u u                           ",
"                      l L +.8.r.8.O.H l u r r r r r r r 0 r r r r r r r u u u                       ",
"                    7 d A _ -.0.0.-.Y z u r r r r r r r r r r r r r r u r u 0 d                     ",
"                  1 r d z L } 1.0.1.{ V d u r r r 0 r 0 0 r r r r 0 r r r 0 0 0 r                   ",
"                < 7 r r u M Y O.8.0.+.H l u 0 r r 0 0 r r r r 0 0 0 0 r r 0 0 7 0 r                 ",
"                1 0 0 r r l M ! &.8.>.! M r r 0 0 0 r 0 r r 0 0 0 0 0 0 0 7 0 0 0 0                 ",
"              < 7 0 0 0 r u l A _ 1.8.+.A r 0 0 0 0 0 0 r 0 0 7 7 0 0 0 0 0 0 0 0 0 0               ",
"            - 7 7 0 7 0 0 r u z L O.1.>.W l 0 7 0 7 0 0 r 0 0 7 0 0 0 0 0 0 0 r r r 0 r             ",
"            1 7 7 7 0 0 0 0 r d z Y &.1.+.M r 7 7 0 0 0 0 0 7 0 0 0 r 0 0 0 0 r r r 0 7             ",
"          - 7 0 7 0 0 0 0 r r r u M W >.>.W u - 0 < 0 0 0 0 0 0 r r 0 r r r r r 0 0 0 0 0           ",
"          < 7 7 0 0 0 0 0 0 r 0 r u M O.-.{ l &.&.>.} H 1 0 0 r r r r u u r r 0 r r r 0 0           ",
"        $ 1 0 0 0 r 0 r r r r r 0 r u V _ r.b.G.I.^.G.k.0.H < r u u u r r r r r 0 r r 0 0           ",
"        - 0 7 0 0 0 r r r r r 0 0 0 < L g.^.{.{.XXXXXXXXE.h.L 7 r r r r 0 r 0 r r u u u u 1         ",
"        < 7 0 0 0 r r r r u r r 0 0 H s.I.).].{.XXXXXXXXXX].g.. 0 0 0 0 r r u r u u u d d 0         ",
"        7 r 0 0 r 0 0 r r u r r 0 7 1.N.E.^.).].{.XXXXXXXXXX].-.@ 0 r r r r u r u d u d d r         ",
"        0 u u u u r u r r r r 0 7 V s.G.I.^.^.).{.{.XXXXXXXXXXn.7 0 r r u u u d d d d l z d         ",
"      < u l l d l l d d d u u r 0 { z.G.P.I.^.).).].XXXXXXXXXXI.&.7 u d d d d l z M M M V z         ",
"      1 l M z z z z z z z l l d r &.M.S.P.I.E.^.S.S.{.XXXXXXXXE.>.l z M z M z M M M V V A z         ",
"      < l z z z z z z z l d d l d +.b.S.G.P.I.E.P.P.].{.XXXXXX).8.l M z z z M z z M M V V M         ",
"      < d l l l l d d u u r r 0 1 } k.Z.S.G.P.I.E.).].{.XXXXXXP.+.r u u d u u d l l z M M d         ",
"      $ 0 u u r u r r 0 0 7 1 1 1 7 p.M.Z.S.P.I.E.^.].].{.XXXXb.L 7 0 7 7 0 0 r 0 r u u d r         ",
"        7 0 0 0 0 0 0 7 7 7 7 1 1 0 &.b.N.S.G.G.I.^.).].{.XXE.t.1 7 7 7 7 7 7 7 7 0 0 0 0 7         ",
"        < 7 0 0 0 0 0 0 7 7 7 7 1 1 l u.n.Z.S.G.I.E.^.].{.].k.W 7 1 7 7 7 0 0 0 0 0 7 0 7 <         ",
"        $ 7 0 7 0 0 0 7 7 7 7 1 1 1 < V i.z.Z.S.P.I.E.].^.h.Y $ 0 0 7 7 7 0 0 0 0 0 0 0 7 <         ",
"        $ 1 0 7 7 7 7 7 1 1 1 1 1 1 1 @ H 1.s.b.N.N.Z.b.y.{ z u 0 0 7 7 7 7 0 0 r r 0 0 7           ",
"          < 1 7 7 1 1 7 1 7 1 1 1 7 1 7 1 < A } -.>.&.l { } ! z u r 0 7 7 7 0 0 0 r r 0 1           ",
"          - 1 7 1 1 7 1 1 1 1 7 1 7 1 1 1 < < 1 - 0 < u Y &.+.Y z r 0 7 7 7 7 0 0 0 0 0 <           ",
"          X < 1 7 7 1 1 1 7 7 1 1 1 < < < < < 1 1 7 0 r V } -.} A d r 0 7 1 7 7 0 0 0 1             ",
"            $ 1 1 1 1 7 7 7 1 1 1 1 < < < < < < 1 7 0 0 l W &.&.! V u 0 7 7 7 7 7 0 1 -             ",
"              < 1 1 1 1 1 1 1 1 1 < < < < < 1 1 7 7 7 0 u A } -.+.W z u 0 7 1 7 7 7 <               ",
"              @ 1 1 7 1 1 1 1 1 1 < < < < 1 < < 1 1 7 7 r z W +.&.{ H d r 7 7 1 1 <                 ",
"                - < < 1 1 1 1 1 1 < 1 < 1 1 1 1 1 1 7 7 0 d H { &.&.! V d 0 0 7 < -                 ",
"                  @ < 1 7 1 1 1 1 < < 1 1 1 < < 1 7 7 7 0 u M W +.&.} W z u 0 1 $                   ",
"                    $ < 1 1 1 7 1 1 1 7 1 1 < < < 7 1 1 7 0 d H { &.+._ H l 7 <                     ",
"                      $ < 1 1 1 1 1 1 1 7 1 1 < < 1 1 7 1 0 u M W O.&.} Y z 0                       ",
"                        X < 1 1 1 1 1 7 1 1 1 < < < 1 1 7 7 0 l A _ +.O.W                           ",
"                            $ < < 1 1 1 7 1 1 < < < 1 1 1 1 0 u M Y ! L                             ",
"                                $ - 1 1 1 1 < < < < < < 1 1 7 0 u l                                 ",
"                                    @ - - - - - - - < - - - $                                       ",
"                                              @ @ @                                                 ",
"                                                                                                    ",
"                                                                                                    ",
"                                                                                                    "
};
