/* XPM */
static char *_bac696f85d14f82a7a17a5d0fc3003aM7JdtXlCOwHwNVFi[] = {
/* columns rows colors chars-per-pixel */
"50 50 176 2 ",
"   c None",
".  c #020202",
"X  c gray1",
"o  c #040404",
"O  c gray2",
"+  c #070707",
"@  c gray3",
"#  c #090909",
"$  c gray4",
"%  c #0B0B0B",
"&  c #0C0C0C",
"*  c gray5",
"=  c #0E0E0E",
"-  c gray6",
";  c #101010",
":  c #111111",
">  c gray7",
",  c #131313",
"<  c gray8",
"1  c #151515",
"2  c #161616",
"3  c gray9",
"4  c #181818",
"5  c #191919",
"6  c gray10",
"7  c #1B1B1B",
"8  c gray11",
"9  c #1D1D1D",
"0  c #1E1E1E",
"q  c gray12",
"w  c #202020",
"e  c gray13",
"r  c #222222",
"t  c #232323",
"y  c gray14",
"u  c #252525",
"i  c gray15",
"p  c #272727",
"a  c #282828",
"s  c gray16",
"d  c #2A2A2A",
"f  c gray17",
"g  c #2C2C2C",
"h  c #2D2D2D",
"j  c gray18",
"k  c #2F2F2F",
"l  c gray19",
"z  c #313131",
"x  c #323232",
"c  c gray20",
"v  c #343434",
"b  c #353535",
"n  c gray21",
"m  c #373737",
"M  c gray22",
"N  c #393939",
"B  c #3A3A3A",
"V  c gray23",
"C  c #3C3C3C",
"Z  c gray24",
"A  c #3E3E3E",
"S  c #3F3F3F",
"D  c #414141",
"F  c #434343",
"G  c #444444",
"H  c gray27",
"J  c gray28",
"K  c #484848",
"L  c #494949",
"P  c gray29",
"I  c #4B4B4B",
"U  c #4C4C4C",
"Y  c gray30",
"T  c gray31",
"R  c #505050",
"E  c #515151",
"W  c gray32",
"Q  c #535353",
"!  c gray33",
"~  c #555555",
"^  c #565656",
"/  c gray34",
"(  c #585858",
")  c #5B5B5B",
"_  c gray36",
"`  c #5F5F5F",
"'  c #606060",
"]  c gray38",
"[  c #626262",
"{  c gray39",
"}  c #646464",
"|  c #656565",
" . c gray40",
".. c #676767",
"X. c DimGray",
"o. c #6A6A6A",
"O. c gray42",
"+. c #6C6C6C",
"@. c #6D6D6D",
"#. c gray43",
"$. c #6F6F6F",
"%. c gray44",
"&. c #717171",
"*. c #747474",
"=. c gray46",
"-. c #767676",
";. c #777777",
":. c #797979",
">. c gray48",
",. c #7B7B7B",
"<. c gray49",
"1. c #7E7E7E",
"2. c gray50",
"3. c #808080",
"4. c #818181",
"5. c gray51",
"6. c #838383",
"7. c #848484",
"8. c gray53",
"9. c #888888",
"0. c gray60",
"q. c #9A9A9A",
"w. c #9F9F9F",
"e. c #A4A4A4",
"r. c gray65",
"t. c gray68",
"y. c #B2B2B2",
"u. c #B4B4B4",
"i. c gray72",
"p. c #C1C1C1",
"a. c gray77",
"s. c #C5C5C5",
"d. c #C8C8C8",
"f. c gray79",
"g. c #CACACA",
"h. c #CDCDCD",
"j. c gray81",
"k. c #D2D2D2",
"l. c LightGray",
"z. c gray83",
"x. c gray84",
"c. c #D7D7D7",
"v. c #D8D8D8",
"b. c gray85",
"n. c #DADADA",
"m. c gray86",
"M. c gainsboro",
"N. c #DDDDDD",
"B. c gray87",
"V. c #DFDFDF",
"C. c gray88",
"Z. c #E1E1E1",
"A. c #E2E2E2",
"S. c #E4E4E4",
"D. c gray90",
"F. c #E6E6E6",
"G. c #E7E7E7",
"H. c #EAEAEA",
"J. c gray92",
"K. c #ECECEC",
"L. c gray93",
"P. c #EFEFEF",
"I. c #F1F1F1",
"U. c gray95",
"Y. c #F3F3F3",
"T. c #F4F4F4",
"R. c gray96",
"E. c #F6F6F6",
"W. c gray97",
"Q. c #F8F8F8",
"!. c #F9F9F9",
"~. c gray98",
"^. c gray99",
"/. c #FDFDFD",
"(. c #FEFEFE",
"). c white",
/* pixels */
"                                                                                                    ",
"                                                                                                    ",
"                                                                                                    ",
"                                                                                                    ",
"                                      s i i 7 0 t 0 0 0 0 0 3                                       ",
"                                x s 0 0 0 0 t i t t t t t s s i t 7                                 ",
"                            x i i s t 0 t 0 t t i t t t i s h h x M x t                             ",
"                          h i i i i t t 0 t t t i t t i i s h h b Z Z Z s                           ",
"                      M s i i i i i t t 0 0 t t t t t t i s h h M D D Z b i *                       ",
"                    M i i i i i i t t 0 t 0 t t i t t i i s h x M Z Z M h i 0 *                     ",
"                  M t i i i i t t t t t 0 t t i i t t t i s s b Z Z M h i 0 0 0 ;                   ",
"                M t t i i i i t t t t 0 t t t i i i i i s s h b Z M x i t t t 0 0 *                 ",
"                s s t t t i i t t 0 0 t t t t i i t t i i i x M M b s t 0 0 0 t t 7                 ",
"              h s s i i t t i i 0 t 0 0 t t i i i t i i i s b M b s t 0 0 t t t t t 3               ",
"            x i s s s t t t t t i 0 0 t t t i i i t t t t x M M s t 0 0 t t t t t 0 0 *             ",
"            s s i i i i i t t i i t t 0 0 i i i i t t i i b M b i 0 0 0 t t t t t t 0 7             ",
"          x s s i i t i i t t t t t t 0 0 t i i 0 0 0 t s Z M s 0 0 0 0 t 0 t t 0 0 0 0 *           ",
"          s i i i i i i t 0 t t t t t 0 t 0 7 7 t 0 7 7 s M h t 0 0 t 0 0 t 0 0 0 0 0 7 ;           ",
"          t t t t i i i t t t 0 0 t t t 7 { a.I././.I.h.&.s i 0 0 0 7 0 0 0 7 0 0 7 7 7 3           ",
"        s s i i t t t t t t t 0 0 0 0 7 r././././././././.y.7 0 7 7 0 0 0 0 0 7 7 7 7 7 0 *         ",
"        h h h s i i i t t t 0 t 0 0 7 r././././././././././.u.7 7 0 0 t 0 0 0 0 0 0 0 t 0 3         ",
"        M M b x h h h i i t 0 0 0 0 { ~./././././././././././.;.7 0 t t t t i i i i i s i t         ",
"        I R T H Z M b x h s i t t 7 a././././././././././././.h.7 t i h s h h x x b M M Z b         ",
"        #.;.#.X. .{ ) R T I D Z b i J.~./.~.~.~.~.~.~.~.~.~.~.T.i b Z H H I R R R / / / / R         ",
"        5.9.8.5.5.1.:.:.:.;.;.;.#.) ~.~.T.~.T.T.f.m.T.~.T.~.T.~.&._ X.#.#.#.&.#.#.#.#.X.X.{         ",
"        1.8.5.5.5.5.1.1.1.:.:.1.&.{ T.T.T.I.T.I.x.Z.K.I.I.I.T.I.&. .#.#.#.#.#.&.#.#.#.X.#. .        ",
"        X.#.X.#. . .{ _ / R I H Z h Z.K.K.K.J.J.K.J.J.J.J.J.K.F.s b Z H I T R R R ) ) / / R         ",
"        I T I I D D Z M b h s s i 0 i.F.F.F.F.F.F.F.F.F.Z.F.F.p.7 t i s s h x b M M Z Z D M         ",
"        x b b x h h h s s i t t t 7  .B.B.B.Z.Z.B.B.B.B.B.B.B.&.7 t 0 t t 0 t t i i i s h i         ",
"        t s s i s t i t t t t t t 0 7 0.m.B.B.m.m.m.x.m.m.x.e.3 7 7 0 0 0 0 0 0 0 0 0 0 0 3         ",
"        7 i i t t t t t t i t t t t 0 7 0.x.x.k.k.k.k.k.k.w.7 3 7 7 7 7 7 0 7 7 7 7 7 7 7 @         ",
"          0 0 t t t 0 t t t i t t t t 0 i X.t.f.h.h.f.t. .3 3 3 3 3 7 3 7 7 3 7 7 7 3 3 3 +         ",
"          7 t 0 0 t t 0 t t i i i t t s x i 7 3 H I 7 3 3 3 3 3 3 3 3 3 7 3 3 7 3 3 3 3 ;           ",
"          * 0 0 0 0 0 t i i i i i i s h h i 7 3 3 7 3 3 7 7 3 3 3 3 3 7 3 3 3 3 3 3 3 7 @           ",
"            3 0 0 0 t t t i i i i s h x h 0 7 7 7 7 7 7 7 3 3 3 3 3 7 3 3 3 3 3 3 3 3 ;             ",
"            * 0 t 0 0 t t t t t s h b x i 0 7 7 3 3 3 7 7 3 3 3 ; 3 3 7 3 3 3 3 3 3 ; @             ",
"              3 t 0 0 t t t t i h x b x t 0 0 0 7 7 3 7 7 3 3 3 7 3 3 7 7 3 7 3 7 3 ;               ",
"                7 t 0 0 0 t i s x b b s t 0 0 0 7 3 7 7 7 7 7 3 3 3 3 3 7 7 7 3 3 ; +               ",
"                @ 7 0 t 0 t s x b b x i 0 0 0 0 7 3 7 7 7 7 3 3 3 3 3 7 7 7 7 7 3 +                 ",
"                  * 7 t t i h b b b h t t t 0 0 7 7 3 7 7 3 3 3 3 3 3 3 3 7 7 3 @                   ",
"                    * t i h x x M x s t t 0 t 0 7 3 7 7 7 3 3 3 3 3 7 3 3 7 7 @                     ",
"                      @ t h b M b h i t 0 t 0 7 7 7 7 7 7 3 7 3 7 7 7 3 3 3 @                       ",
"                        + t M M x s t t 0 0 0 0 3 7 7 7 3 3 3 7 7 7 7 7 * +                         ",
"                            7 s h i t 0 t 0 0 7 3 7 3 7 7 7 3 7 7 3 3 @                             ",
"                                * 7 0 t t 0 0 7 7 7 7 7 7 3 3 3 ; @                                 ",
"                                    + @ ; 3 3 3 3 7 3 3 3 * @ +                                     ",
"                                            . + + + . .                                             ",
"                                                                                                    ",
"                                                                                                    ",
"                                                                                                    "
};
