/* XPM */
static char *ca5e9a69ede7407faf52f6fd5cce8c13kERWIByIEJMwD5Hy[] = {
/* columns rows colors chars-per-pixel */
"50 50 189 2 ",
"   c None",
".  c gray5",
"X  c #0E0E0E",
"o  c gray6",
"O  c #101010",
"+  c #111111",
"@  c gray7",
"#  c #131313",
"$  c gray8",
"%  c #151515",
"&  c #161616",
"*  c gray9",
"=  c #181818",
"-  c #191919",
";  c gray10",
":  c #1B1B1B",
">  c gray11",
",  c #1D1D1D",
"<  c #1E1E1E",
"1  c gray12",
"2  c #202020",
"3  c gray13",
"4  c #222222",
"5  c #232323",
"6  c gray14",
"7  c #252525",
"8  c gray15",
"9  c #272727",
"0  c #282828",
"q  c gray16",
"w  c #2A2A2A",
"e  c gray17",
"r  c #2C2C2C",
"t  c #2D2D2D",
"y  c gray18",
"u  c #2F2F2F",
"i  c gray19",
"p  c #313131",
"a  c #323232",
"s  c gray20",
"d  c #343434",
"f  c #353535",
"g  c gray21",
"h  c #373737",
"j  c gray22",
"k  c #393939",
"l  c #3A3A3A",
"z  c gray23",
"x  c #3C3C3C",
"c  c gray24",
"v  c #3E3E3E",
"b  c #3F3F3F",
"n  c gray25",
"m  c #414141",
"M  c gray26",
"N  c #434343",
"B  c #444444",
"V  c gray27",
"C  c #464646",
"Z  c gray28",
"A  c #484848",
"S  c gray29",
"D  c #4B4B4B",
"F  c #4C4C4C",
"G  c gray30",
"H  c #4E4E4E",
"J  c gray31",
"K  c #505050",
"L  c #515151",
"P  c gray32",
"I  c #535353",
"U  c gray33",
"Y  c #555555",
"T  c #565656",
"R  c gray34",
"E  c #585858",
"W  c gray35",
"Q  c #5B5B5B",
"!  c gray36",
"~  c #5D5D5D",
"^  c gray37",
"/  c #5F5F5F",
"(  c #606060",
")  c gray38",
"_  c #626262",
"`  c gray39",
"'  c #646464",
"]  c #656565",
"[  c gray40",
"{  c #676767",
"}  c #686868",
"|  c DimGray",
" . c #6A6A6A",
".. c gray42",
"X. c #6C6C6C",
"o. c #6D6D6D",
"O. c gray43",
"+. c #6F6F6F",
"@. c gray44",
"#. c #717171",
"$. c #727272",
"%. c gray45",
"&. c #747474",
"*. c gray46",
"=. c #767676",
"-. c #777777",
";. c gray47",
":. c gray48",
">. c #7B7B7B",
",. c #7C7C7C",
"<. c gray49",
"1. c #7E7E7E",
"2. c gray50",
"3. c #808080",
"4. c #818181",
"5. c #838383",
"6. c #848484",
"7. c gray52",
"8. c gray53",
"9. c #898989",
"0. c #8D8D8D",
"q. c gray57",
"w. c gray58",
"e. c #959595",
"r. c gray59",
"t. c #9A9A9A",
"y. c #9B9B9B",
"u. c #9D9D9D",
"i. c gray62",
"p. c #A2A2A2",
"a. c gray64",
"s. c gray69",
"d. c #B2B2B2",
"f. c gray70",
"g. c #B4B4B4",
"h. c gray71",
"j. c gray72",
"k. c #B9B9B9",
"l. c #BCBCBC",
"z. c gray74",
"x. c gray75",
"c. c #C0C0C0",
"v. c #C1C1C1",
"b. c gray77",
"n. c #C5C5C5",
"m. c #C6C6C6",
"M. c gray78",
"N. c #CACACA",
"B. c #CDCDCD",
"V. c #D0D0D0",
"C. c #D2D2D2",
"Z. c LightGray",
"A. c #D5D5D5",
"S. c #D7D7D7",
"D. c #D8D8D8",
"F. c gray85",
"G. c gray86",
"H. c gainsboro",
"J. c #DDDDDD",
"K. c gray87",
"L. c #DFDFDF",
"P. c gray88",
"I. c #E1E1E1",
"U. c gray89",
"Y. c #E4E4E4",
"T. c gray90",
"R. c #E6E6E6",
"E. c #E7E7E7",
"W. c gray91",
"Q. c #E9E9E9",
"!. c #EAEAEA",
"~. c gray92",
"^. c #ECECEC",
"/. c gray93",
"(. c #EEEEEE",
"). c gray94",
"_. c #F1F1F1",
"`. c gray95",
"'. c gray96",
"]. c #F6F6F6",
"[. c gray97",
"{. c #F8F8F8",
"}. c #F9F9F9",
"|. c gray98",
" X c #FBFBFB",
".X c gray99",
"XX c #FDFDFD",
"oX c #FEFEFE",
"OX c white",
/* pixels */
"                                                                                                    ",
"                                                                                                    ",
"                                                                                                    ",
"                                            o o o o o o                                             ",
"                                    o # # # = = = = = = & = & #                                     ",
"                              o o & & = & & = = = = > > > > > = > >                                 ",
"                            # & & = = = = = = > = > > > 4 > 4 4 8 t w 8                             ",
"                        o # = = = = = = = = > = > = > > > 4 4 8 w a d a w >                         ",
"                      # & & = = > = = = = > > = = > > 4 > 4 4 8 t d d d t 4 =                       ",
"                    # & = = = = = = = = = = > > = > > 4 4 4 8 w a d d a w 8 > =                     ",
"                  # & = > = = = = = = = = > > = > > > 4 4 4 8 t d d a t w 4 4 > &                   ",
"                # & = = > = = = = = = = = > > = = > > 4 > 4 w t d a a w 4 4 > > = &                 ",
"              o # & = > > = = = = & = = > = > > = > > > 4 8 w a a a t 8 4 4 4 > > > &               ",
"              # & & = = = = = = & = = & = = = = = > > > > 8 t a a t 8 8 4 4 4 4 4 > =               ",
"            o & & & & = = = = = & & & = = > = > = > > > > w a a t w 8 4 8 4 4 4 4 > = =             ",
"            # & & & & & = = = = = = & = = = > = = = = > 4 w t t w 8 8 8 8 4 4 4 > 4 > =             ",
"          # & & = = = = = = = = = = & = = & > 8 8 t = 8 8 w t w 8 8 8 8 8 4 4 4 > > 4 = =           ",
"          # & = = = = = = = = = = & & & 4 N Q ..%.%...Q C a w 8 4 8 8 8 8 4 4 4 4 4 > 4 >           ",
"        # # = = = = > = > = = = = = = a Q 4.p.f.h.l.f.p.7./ d 4 8 8 8 8 4 4 4 4 4 4 4 4 >           ",
"        & = > > > > > > > > > > = = d [ t.l.N.B.Z.A.Z.N.x.u.[ a > 4 4 8 8 4 4 4 4 8 4 8 8 >         ",
"        > 4 4 > 4 > > 4 > > 4 > > w ) p.m.A.G.G.G.G.H.H.G.m.u./ 8 4 8 4 4 8 8 w 8 w t t w w         ",
"        w t t w w w 8 8 8 8 4 4 4 C 0.m.H.P.P.P.H.P.P.P.P.G.m.9.A > 4 8 w w t t a a d j j d         ",
"        c N N N c c j j d d a t t [ f.G.Y.Y.Y.Y.Y.W.W.Y.Y.Y.G.f.) a a d j c N N A A H K U K         ",
"        K U U U Q Q U U K K A A C 4.B.W.W././.W.W.W.W./././.Y.N.4.H K U U Q / ) [ ......O...        ",
"        / [ [ [ ....[ [ ..[ [ ) [ w.H.`.`.`././.Y.Y./.`.`.`.`.G.q.[ O.O.%.%.=.=.2.;.2.2.4.;.        ",
"        / ) [ ..[ ..[ ..[ [ ) / / w.H.].].].].`.W.Y./.].].].].G.q.....O.O.%.%.=.=.;.2.2.4.2.        ",
"        K U U U U U U U H H H C C 7.A.]. X XXX X].].]. X X X].Z.4.C A H K U Q Q ) [ ..O.O.O.        ",
"        j c N c c c j d a a a t t O.m./.XXXXXXXXXXXXXX X X X/.x.[ t t t a j j N C A H K U U         ",
"        w t t w w 8 8 8 8 8 8 8 > K u.H. XXXXXXXXXXXXXXXXX XG.w.C 4 > 4 8 8 w t t a d j c c         ",
"        > > 4 4 4 4 > 4 > 4 > 4 > 8 O.h.Y. XXXXXXXXXXXXX XP.h.[ w > 4 4 4 8 4 8 w w t t t a         ",
"        & = = > 4 > > > > 4 > > > = j =.l.H.`. XXXXX X`.G.s.O.d 4 > > 4 4 4 4 8 4 8 8 8 w t         ",
"          = = > > > > 4 > > > > 4 > 4 c O.t.c.G.P.P.A.c.w.[ j 4 > 4 4 4 4 8 8 8 8 4 8 8 8           ",
"          & = > 4 > > 4 > 4 > > 4 4 4 t j K ..2.7.7.2.[ A 8 > 4 4 4 4 4 4 4 8 8 4 8 8 8 w           ",
"          & > > > 4 4 4 4 > 4 4 > 4 t a d t w > t 4 w 8 4 > 4 4 8 4 8 4 8 4 8 8 8 8 8 w t           ",
"            = > 4 4 4 4 4 4 > 4 4 w a j d w 8 4 4 4 8 8 8 4 4 4 4 4 4 4 4 8 8 8 8 8 w w             ",
"            = > 4 4 8 4 4 4 > 4 8 t d d a 8 4 8 4 8 w 8 8 4 > > 4 8 4 8 4 8 4 8 w 8 w t             ",
"              > 4 4 4 4 4 > 4 4 t d d d w 8 8 8 8 8 8 8 4 4 4 4 4 4 8 8 4 4 8 8 w w t               ",
"                = > 4 4 4 4 8 w a j j a w 8 8 4 4 8 8 8 4 4 > 4 > 4 4 8 8 8 4 8 8 w                 ",
"                = > 4 4 4 4 w a d j d t w 8 8 8 8 8 8 4 4 > 4 4 4 4 8 8 8 4 8 8 w t                 ",
"                  = > > 4 w a d c c d t w 8 8 4 4 8 8 4 4 4 4 4 8 4 4 8 8 8 8 8 t                   ",
"                    = > w t j c c j d w w 8 4 8 4 8 8 4 4 > 4 4 4 8 8 8 8 w w a                     ",
"                      > 8 a j c c j a t w w 8 4 8 8 4 4 4 4 4 4 8 4 8 8 8 w t                       ",
"                          a j c j d t w 8 8 4 4 4 8 4 4 4 4 4 4 8 8 8 w w                           ",
"                            a d d a t t w 8 4 8 8 4 8 4 4 > 4 4 8 8 w t                             ",
"                                w w 8 8 8 4 4 4 4 4 4 4 > 4 4 8 8 t                                 ",
"                                      4 > 4 > 4 4 4 4 4 4 8 8                                       ",
"                                                                                                    ",
"                                                                                                    ",
"                                                                                                    ",
"                                                                                                    "
};
