/* XPM */
static char *_a7d451fec6d4841803e1af0d2c2b72dqakopZHR2vIvmN68[] = {
/* columns rows colors chars-per-pixel */
"50 50 190 2 ",
"   c None",
".  c #070707",
"X  c gray4",
"o  c #0B0B0B",
"O  c #0C0C0C",
"+  c gray5",
"@  c #0E0E0E",
"#  c gray6",
"$  c #101010",
"%  c #111111",
"&  c gray7",
"*  c #131313",
"=  c gray8",
"-  c #151515",
";  c #161616",
":  c gray9",
">  c #181818",
",  c #191919",
"<  c gray10",
"1  c #1B1B1B",
"2  c gray11",
"3  c #1D1D1D",
"4  c #1E1E1E",
"5  c gray12",
"6  c #202020",
"7  c gray13",
"8  c #222222",
"9  c #232323",
"0  c gray14",
"q  c #252525",
"w  c gray15",
"e  c #272727",
"r  c #282828",
"t  c gray16",
"y  c #2A2A2A",
"u  c gray17",
"i  c #2C2C2C",
"p  c #2D2D2D",
"a  c gray18",
"s  c #2F2F2F",
"d  c gray19",
"f  c #313131",
"g  c #323232",
"h  c gray20",
"j  c #343434",
"k  c #353535",
"l  c gray21",
"z  c #373737",
"x  c gray22",
"c  c #393939",
"v  c #3A3A3A",
"b  c gray23",
"n  c #3C3C3C",
"m  c gray24",
"M  c #3E3E3E",
"N  c #3F3F3F",
"B  c gray25",
"V  c #414141",
"C  c gray26",
"Z  c #434343",
"A  c #444444",
"S  c gray27",
"D  c #464646",
"F  c gray28",
"G  c #484848",
"H  c #494949",
"J  c gray29",
"K  c #4C4C4C",
"L  c gray30",
"P  c gray31",
"I  c #505050",
"U  c #515151",
"Y  c gray32",
"T  c #535353",
"R  c gray33",
"E  c #555555",
"W  c #565656",
"Q  c #585858",
"!  c gray35",
"~  c #5A5A5A",
"^  c #5B5B5B",
"/  c gray36",
"(  c #5D5D5D",
")  c gray37",
"_  c #5F5F5F",
"`  c #606060",
"'  c gray38",
"]  c #626262",
"[  c gray39",
"{  c #646464",
"}  c #656565",
"|  c gray40",
" . c #676767",
".. c #686868",
"X. c DimGray",
"o. c #6A6A6A",
"O. c gray42",
"+. c #6C6C6C",
"@. c #6D6D6D",
"#. c gray43",
"$. c #6F6F6F",
"%. c gray44",
"&. c #717171",
"*. c #727272",
"=. c gray45",
"-. c #747474",
";. c gray46",
":. c #767676",
">. c #777777",
",. c gray48",
"<. c #7B7B7B",
"1. c gray49",
"2. c #7E7E7E",
"3. c gray50",
"4. c #808080",
"5. c #818181",
"6. c #848484",
"7. c gray52",
"8. c #868686",
"9. c #888888",
"0. c #8B8B8B",
"q. c #8E8E8E",
"w. c gray58",
"e. c gray59",
"r. c #989898",
"t. c #9A9A9A",
"y. c gray61",
"u. c gray63",
"i. c #A9A9A9",
"p. c gray67",
"a. c #AEAEAE",
"s. c #B2B2B2",
"d. c gray71",
"f. c #B6B6B6",
"g. c #B7B7B7",
"h. c gray72",
"j. c #BCBCBC",
"k. c gray74",
"l. c gray",
"z. c gray75",
"x. c gray76",
"c. c #C5C5C5",
"v. c #C6C6C6",
"b. c gray78",
"n. c #CBCBCB",
"m. c #CDCDCD",
"M. c #D2D2D2",
"N. c LightGray",
"B. c gray83",
"V. c #D5D5D5",
"C. c #D8D8D8",
"Z. c gray85",
"A. c #DADADA",
"S. c gray86",
"D. c gainsboro",
"F. c #DDDDDD",
"G. c gray87",
"H. c #DFDFDF",
"J. c gray88",
"K. c #E1E1E1",
"L. c #E2E2E2",
"P. c gray89",
"I. c #E4E4E4",
"U. c gray90",
"Y. c #E6E6E6",
"T. c #E7E7E7",
"R. c gray91",
"E. c #E9E9E9",
"W. c #EAEAEA",
"Q. c gray92",
"!. c #ECECEC",
"~. c gray93",
"^. c #EEEEEE",
"/. c #EFEFEF",
"(. c gray94",
"). c #F1F1F1",
"_. c gray95",
"`. c #F3F3F3",
"'. c #F4F4F4",
"]. c gray96",
"[. c #F6F6F6",
"{. c gray97",
"}. c #F8F8F8",
"|. c #F9F9F9",
" X c gray98",
".X c #FBFBFB",
"XX c gray99",
"oX c #FDFDFD",
"OX c #FEFEFE",
"+X c white",
/* pixels */
"                                                                                                    ",
"                                                                                                    ",
"                                                                                                    ",
"                                                *                                                   ",
"                                    * - - < 3 < < 3 < 3 < 3 3                                       ",
"                                3 3 3 6 3 3 3 6 3 3 6 6 6 6 r a x J                                 ",
"                            w r r r w 6 6 6 6 6 3 6 6 6 6 w r x J ] &.&.                            ",
"                        < r g j g r 6 6 6 6 6 w 6 6 3 6 w w a B ~ &.5.1.&.                          ",
"                      - 6 g j x g a r 6 6 6 w 6 6 6 6 6 w r j J | ,.8.5.O.U n                       ",
"                    - 3 6 a g j j g a w w w 6 6 6 w 6 6 w a n W #.5.1.&.~ D j a                     ",
"                  * < 6 6 r a j j j g w w 6 w w w w 6 w w g D ] ,.5.:.] J x a a a                   ",
"                * < 3 6 6 w r g j j g r w w w w 6 w w 6 r x U #.1.,.| P x a r w w r                 ",
"              # - 3 6 3 6 6 w r g g j a r w w w w 6 w w a B ] :.,.O.U x a r w w w r                 ",
"              * < 3 3 6 6 6 6 r a g j a r w w w w w 6 w g P O.,.&.~ n g r w 6 w r r a               ",
"            # < < < 3 3 6 6 6 6 w r g g r w 6 w 6 w 6 r x ~ :.:.( B g r r w 6 w r w r a             ",
"          o - < < < < 3 6 6 6 6 6 w a a a w w w 6 6 w r J O.:.| J g w w 6 w w w w w r a             ",
"          # - < < < < < 3 3 3 3 3 3 w a a 6 w 6 w r 6 j ~ &.&.W j w w 6 w w w 6 w w r r a           ",
"          - < < < < < < 3 3 3 3 3 3 3 w a n U O.:.1.&.( ( &.~ x r 6 6 w w 6 w w w r r r r           ",
"        # * < < < < < < < < < 3 < < < a W 5.i.k.c.m.n.k.w.#.x w 6 3 6 6 6 6 w w w w w w a           ",
"        # - < < < < < < < < - < < < * U r.x.V.Z.K.E.E.(.K.g.] g 3 6 6 w 6 w 6 w 6 w 6 w w g         ",
"        * - - - - < < < < < < < < < J r.c.V.F.K.T.E.(.].|.T.s.W 6 6 3 6 6 w w 6 w w w w 6 a         ",
"        * < < < < < < < < < < < - w :.k.M.Z.F.T.E./.(.].|.|.K.q.x < 6 6 w 6 w w w w w w w a         ",
"      o - < < < < - < < < < < < < D u.m.V.Z.K.T.E.(.].|.XXXX].x.W w w 6 6 w w 6 6 w w w w r         ",
"      # - < < < - < < - - < < < < O.g.M.Z.F.K.E.E./.].|.XXXXXXV.:.6 6 w 6 6 w 6 w 6 w w w r         ",
"      # - < < < < - < < - < < < r :.k.V.Z.K.T.T.K.K.].|.XXXXXXK.1.w 6 6 6 6 6 6 6 6 w w w r         ",
"      # - < < - - < - - < - - < 3 :.k.Z.F.K.T./.T.K.|.XXXXXXXXT.8.r 6 6 6 6 6 6 6 w 6 w w r         ",
"      o - < < - < - < - - - - - 3 O.k.Z.K.T.E.(.(.].XXXXXXXXXXZ.:.6 w 6 6 6 6 6 w w 6 r w r         ",
"      o * < - < - < - - - < < - < W a.Z.T.E./.].].|.XXXXXXXX|.x.W w w w w 6 6 6 6 6 w w w r         ",
"        * < < < < < < < - < - < - x 8.m.T./.(.].XXXXXXXXXXXXE.9.* 6 r w w 6 w 6 6 6 w 6 w w         ",
"        - < < < < < < - < - < < < 3 ( i.F.(.].].XXXXXXXXXX/.g.P 3 w w r w w 6 6 6 6 6 6 6 w         ",
"        * - < < < - - < < - < < 3 3 a ] g.K.].|.XXXXXX|.K.g.] . 6 w w w w w w 6 6 6 6 6 6 r         ",
"        # - < < < < - - < < 3 6 6 6 r x &.y.c.F.K.T.Z.c.w.] g 6 6 w 6 w w w w 6 w w 6 6 w           ",
"          * - < - - - < < 3 3 3 6 r n W ] ~ ] 1.9.9.1.( J j a r w w 6 w 6 w w w 6 w 6 6 6           ",
"          # - - - < - < < < 3 6 w j U O.| J a 6 g 6 6 w r j j a w w w w w w 6 w w w w 6 w           ",
"            * - - < - < < < 6 w g D ] O.( B r 6 3 3 3 6 w g x j a r w w w 6 6 w 6 w 6 6             ",
"            # * < - < < 3 3 w r n ~ O.O.U j r 6 6 3 3 3 6 a x j g r r r w w w 6 w 6 6 w             ",
"              * - - < < < 6 r x U O.#.( B a 6 6 3 3 3 6 6 w g j j g r r r r w w 6 6 6               ",
"              # - - < < 6 w j J ( O.| U x r 6 6 3 3 3 6 6 6 a j x j g a a r w w w 6                 ",
"                * * < < 6 g B ~ O.O.( D a w 6 3 6 6 6 6 6 6 r g x n x g a r r w 6 3                 ",
"                  * < 6 a x U ] #.| U x r 6 6 3 3 6 6 6 6 3 w a x n x x g a a w 3                   ",
"                    - w g J ~ O.O.( D a w 3 3 3 6 6 6 w 6 6 w r j n B n j a r 6                     ",
"                      w x U ] O.] U x r 6 3 3 3 6 6 6 6 6 6 6 r j x B n j a w                       ",
"                          U ] ] ~ B a w 3 3 3 3 6 6 6 w w 6 6 w a x n x j                           ",
"                            P W J x r 6 3 3 < 3 6 w w 6 6 6 6 6 r a j a                             ",
"                                j r 6 3 < < 3 3 3 6 6 6 6 3 3 3 6 6                                 ",
"                                      - - - - 3 3 3 3 3 < < <                                       ",
"                                                                                                    ",
"                                                                                                    ",
"                                                                                                    ",
"                                                                                                    "
};
