/* XPM */
static char *caec1e6f36a642ebcadf1c91de2a688c7nv08WnW66Ysgd8b[] = {
/* columns rows colors chars-per-pixel */
"50 50 191 2 ",
"   c None",
".  c #0E0E0E",
"X  c gray6",
"o  c #101010",
"O  c #111111",
"+  c #131313",
"@  c gray8",
"#  c #151515",
"$  c #161616",
"%  c gray9",
"&  c #181818",
"*  c #191919",
"=  c gray10",
"-  c #1B1B1B",
";  c gray11",
":  c #1D1D1D",
">  c #1E1E1E",
",  c gray12",
"<  c #202020",
"1  c gray13",
"2  c #222222",
"3  c #232323",
"4  c gray14",
"5  c #252525",
"6  c gray15",
"7  c #272727",
"8  c #282828",
"9  c gray16",
"0  c #2A2A2A",
"q  c gray17",
"w  c #2C2C2C",
"e  c #2D2D2D",
"r  c gray18",
"t  c #2F2F2F",
"y  c gray19",
"u  c #313131",
"i  c #323232",
"p  c gray20",
"a  c #343434",
"s  c #353535",
"d  c gray21",
"f  c #373737",
"g  c gray22",
"h  c #393939",
"j  c #3A3A3A",
"k  c gray23",
"l  c #3C3C3C",
"z  c gray24",
"x  c #3E3E3E",
"c  c #3F3F3F",
"v  c gray25",
"b  c #414141",
"n  c gray26",
"m  c #434343",
"M  c #444444",
"N  c gray27",
"B  c #464646",
"V  c gray28",
"C  c #484848",
"Z  c #494949",
"A  c gray29",
"S  c #4B4B4B",
"D  c #4C4C4C",
"F  c gray30",
"G  c #4E4E4E",
"H  c gray31",
"J  c #505050",
"K  c gray32",
"L  c #535353",
"P  c gray33",
"I  c #555555",
"U  c #565656",
"Y  c gray34",
"T  c gray35",
"R  c #5A5A5A",
"E  c #5B5B5B",
"W  c gray36",
"Q  c #5D5D5D",
"!  c gray37",
"~  c #5F5F5F",
"^  c #606060",
"/  c gray38",
"(  c #626262",
")  c gray39",
"_  c #646464",
"`  c #656565",
"'  c gray40",
"]  c #676767",
"[  c #686868",
"{  c DimGray",
"}  c gray42",
"|  c #6C6C6C",
" . c #6D6D6D",
".. c gray43",
"X. c #6F6F6F",
"o. c gray44",
"O. c #717171",
"+. c #727272",
"@. c gray45",
"#. c #747474",
"$. c gray46",
"%. c #777777",
"&. c gray47",
"*. c #797979",
"=. c gray48",
"-. c #7B7B7B",
";. c gray49",
":. c #7E7E7E",
">. c gray50",
",. c #808080",
"<. c #818181",
"1. c #848484",
"2. c gray52",
"3. c #868686",
"4. c #888888",
"5. c #8B8B8B",
"6. c #8E8E8E",
"7. c gray56",
"8. c #939393",
"9. c #959595",
"0. c #979797",
"q. c gray60",
"w. c gray62",
"e. c #A0A0A0",
"r. c gray64",
"t. c gray65",
"y. c gray66",
"u. c #AFAFAF",
"i. c #B1B1B1",
"p. c #B2B2B2",
"a. c #B4B4B4",
"s. c #B6B6B6",
"d. c #B7B7B7",
"f. c gray72",
"g. c #B9B9B9",
"h. c #BBBBBB",
"j. c #BCBCBC",
"k. c gray74",
"l. c gray75",
"z. c #C0C0C0",
"x. c gray76",
"c. c gray77",
"v. c #C6C6C6",
"b. c gray78",
"n. c #CACACA",
"m. c #CDCDCD",
"M. c gray81",
"N. c #D0D0D0",
"B. c #D2D2D2",
"V. c LightGray",
"C. c #D5D5D5",
"Z. c gray84",
"A. c #D7D7D7",
"S. c #D8D8D8",
"D. c gray85",
"F. c #DADADA",
"G. c gainsboro",
"H. c #DDDDDD",
"J. c gray87",
"K. c gray88",
"L. c #E1E1E1",
"P. c #E2E2E2",
"I. c gray89",
"U. c #E4E4E4",
"Y. c gray90",
"T. c #E6E6E6",
"R. c #E7E7E7",
"E. c gray91",
"W. c #E9E9E9",
"Q. c #EAEAEA",
"!. c gray92",
"~. c #ECECEC",
"^. c gray93",
"/. c #EEEEEE",
"(. c #EFEFEF",
"). c gray94",
"_. c #F1F1F1",
"`. c gray95",
"'. c #F3F3F3",
"]. c #F4F4F4",
"[. c gray96",
"{. c #F6F6F6",
"}. c gray97",
"|. c #F8F8F8",
" X c #F9F9F9",
".X c gray98",
"XX c #FBFBFB",
"oX c gray99",
"OX c #FDFDFD",
"+X c #FEFEFE",
"@X c white",
/* pixels */
"                                                                                                    ",
"                                                                                                    ",
"                                                                                                    ",
"                                                X X X                                               ",
"                                      # # # # # # # + + # # + X                                     ",
"                                l w 5 & & # & & # # # & # & & # + +                                 ",
"                            U U H l w 3 ; & & & & # & & & & ; & & # + +                             ",
"                          J Q ^ U B d 5 ; ; & & & # & & & ; ; & & & # # # X                         ",
"                      0 k H Q _ _ J l w 3 & & & & & & & & ; & & & & & ; & # +                       ",
"                    & 5 d B T _ [ Q A d 5 3 ; ; & & & & & & & & & & ; & & & # +                     ",
"                  # & 3 w k H ^ [ _ U l 0 3 ; & & & & & & & & & & & ; & & & & # +                   ",
"                # & ; ; 5 y n U [ [ Q A y 3 3 ; ; & & & & & & & & & & & & & & & + +                 ",
"                # & ; ; 3 0 d A Q [ _ U l 0 3 ; ; & & & & & # & & & & & & & & & & # +               ",
"              & ; ; ; ; ; 3 0 k J _ [ Q A w 3 ; ; & & & & & # # & & & & & ; & & & & #               ",
"            & ; 3 ; ; ; ; 3 3 y n T [ _ U k 5 3 ; ; & & & & & & & & & ; ; ; & ; & ; # +             ",
"            ; ; 3 ; 3 ; ; ; 3 5 y A ^ _ Q B w ; 3 ; ; # # # & & & & ; & ; & ; & ; & & # X           ",
"          & ; 3 3 3 3 ; 3 ; 3 3 w k H ^ ^ H k l n l d 0 ; # & & ; & ; ; & ; ; & ; & ; & #           ",
"          & 3 3 3 3 3 ; ; ; ; ; 5 w l U ^ ..$.,.4.1.=._ A 0 ; & & ; & & & & & ; ; ; ; ; #           ",
"          ; ; 3 3 3 3 3 3 ; ; 3 3 5 y U :.r.k.v.v.z.f.r.4.^ k ; & & & & ; ; ; ; ; ; ; ; & #         ",
"        & ; 3 3 ; 3 3 ; 3 ; ; ; ; 3 B :.d.F.T.T.L.J.A.n.f.q._ d ; & ; & ; ; 3 3 3 ; 3 3 ; #         ",
"        & 3 3 ; 3 3 3 ; ; ; 3 3 ; d $.f.L.`.`./.E.T.J.F.V.f.0.T 5 & & ; ; ; ; 3 3 3 3 ; ; &         ",
"        ; 3 3 3 3 ; ; 3 3 ; ; ; 5 J w.F.}. X}.`.E.T.L.F.A.m.d.,.B & ; ; 3 ; 3 3 3 3 3 3 5 ;         ",
"        0 0 w 0 0 5 5 5 3 3 3 3 y @.z./. X X X`.`.E.T.L.F.A.n.w.Q 3 ; ; 3 3 3 5 5 0 0 0 0 5 &       ",
"        y d d y y y w w 0 0 0 0 n 5.V.}.OXOX X}./.E.E.L.F.A.V.i.@.k 5 5 5 5 0 w w w w y y w 3       ",
"        k k k k k d y y d d d y A 0.F. XOXOX X`.E.T.T.T.L.J.A.d.:.n 0 w w y y d y d d y d y 5       ",
"        k k l k k d k d y d y d A 8.F. XOXOXOX}.E.T./.E.T.L.F.k.,.n 0 w y y y d d y d d d w 3       ",
"        d k k d d d y y y w w w n 1.A.}.OXOXOXOX}././.E.E.L.A.d.=.d 5 0 w 0 w w w y w y w 0 3       ",
"        w y d y y y w 0 0 0 5 5 0 @.z.`.OXOXOXOX X}.`.`.E.L.V.r._ w 3 5 0 0 0 5 0 0 0 0 0 5         ",
"        0 w w w 0 0 5 0 5 5 3 3 ; H 0.F. XOXOXOX X X}.`./.L.v.4.A 5 3 5 5 5 5 5 5 3 3 3 3 ;         ",
"        5 0 0 0 0 0 5 5 5 5 5 3 5 5 [ i.L.}.OXOXOX X}.}./.V.y.[ w 3 5 5 5 5 5 3 3 3 3 3 3 &         ",
"        3 5 0 5 5 5 5 5 5 5 5 5 5 5 l =.i.F./.}. X}.`.E.A.i.=.n 5 3 3 5 5 5 5 3 3 3 ; ; ; &         ",
"          3 5 5 5 3 3 5 5 5 5 5 0 5 5 n @.q.f.m.F.A.V.k.w.:.T y 5 3 3 5 3 5 3 3 3 3 ; 3 & #         ",
"          3 3 5 5 3 5 3 5 5 5 5 5 5 5 5 y J ..1.5.8.1.$...[ Q B y 0 3 5 3 3 3 3 ; 3 ; ; &           ",
"          ; ; 3 3 5 5 5 5 5 5 5 5 3 3 ; ; 0 y k n l l k J ....T n w 5 3 3 3 ; 3 3 ; 3 ; &           ",
"            3 3 3 3 5 3 3 3 3 3 3 ; 3 3 3 3 3 ; 3 ; 3 0 B _ @.[ J k w 0 5 3 ; 3 ; ; ; &             ",
"            3 3 3 5 3 3 3 ; 3 3 3 3 ; ; 3 3 3 ; ; 3 ; 5 k U ..@._ H k w 5 3 3 ; 3 ; ; &             ",
"              3 3 3 3 3 3 3 ; 3 3 ; 3 3 3 3 3 3 3 3 3 3 y A _ $.@.Q B d w 5 3 3 3 ; &               ",
"                3 3 ; ; ; 3 3 3 3 ; ; 3 3 3 3 3 3 3 3 3 0 n T @.$...T n y 0 5 3 3 ;                 ",
"                  3 ; 3 3 3 3 3 3 3 3 3 3 5 3 3 3 3 3 5 0 k H [ =.=._ U n w 0 5 ; &                 ",
"                  5 3 3 3 3 5 3 3 3 3 5 5 3 3 3 3 3 3 3 5 y B Q $.:.$.^ A k w 5 ;                   ",
"                    5 5 5 5 5 5 5 5 5 5 5 3 5 3 5 5 5 5 0 w l U ..:.:.@.T B y 5                     ",
"                      0 0 5 0 5 5 5 5 5 3 5 3 5 5 5 5 3 5 0 d A _ =.:.=.[ J l                       ",
"                          0 0 5 5 5 5 5 5 5 5 5 5 5 5 3 5 0 y B T @.:.=...                          ",
"                            w 0 0 0 5 5 3 5 5 0 5 0 0 5 5 5 w k J _ @.@.                            ",
"                                w w 0 0 0 5 0 0 0 5 0 5 5 0 w d B U                                 ",
"                                      w 0 0 0 0 0 0 0 0 5 0 w                                       ",
"                                                                                                    ",
"                                                                                                    ",
"                                                                                                    ",
"                                                                                                    "
};
