/* XPM */
static char *_7b4be5bfc79424388ef69536aea0ff6mNzmJQaYx3RrxMJb[] = {
/* columns rows colors chars-per-pixel */
"50 50 65 1 ",
"  c black",
". c #794B1D",
"X c #7B4E21",
"o c #7E5225",
"O c #7F5528",
"+ c #805427",
"@ c #81562A",
"# c #855B2F",
"$ c #865D31",
"% c #885F34",
"& c #896136",
"* c #8C643A",
"= c #8F683E",
"- c #946E45",
"; c #957047",
": c #967149",
"> c #99754C",
", c #9F7D55",
"< c #A07E57",
"1 c #A3825C",
"2 c #A98B65",
"3 c #AA8B66",
"4 c #AB8C66",
"5 c #AA8C67",
"6 c #AB8C67",
"7 c #AA8C68",
"8 c #AB8C68",
"9 c #AD8F6C",
"0 c #AE906B",
"q c #AE906C",
"w c #AE916D",
"e c #B39774",
"r c #B39875",
"t c #B49875",
"y c #B59976",
"u c #B59A76",
"i c #B49A77",
"p c #B59A77",
"a c #B79C7A",
"s c #B89C7A",
"d c #B89D7B",
"f c #B99F7D",
"g c #B9A07D",
"h c #BAA17E",
"j c #BBA27F",
"k c #BBA180",
"l c #BBA381",
"z c #BCA281",
"x c #BCA381",
"c c #BEA683",
"v c #BDA584",
"b c #BFA786",
"n c #BFA886",
"m c #C0A786",
"M c #C0A887",
"N c #C1AA88",
"B c #C3AB8A",
"V c #C2AB8B",
"C c #C3AC8B",
"Z c #C3AC8D",
"A c #C4AD8C",
"S c #C4AE8D",
"D c #C4AE8E",
"F c #C5AF8F",
"G c #C6B090",
/* pixels */
" .o+ %&= ;> 11 8w pfzBBG  ZCblpt w5 1< >; -&% @OX ",
" Xo+ %&= :> ,3 8w phlbZG  Anbfsp 85 1< >; =*% @OX ",
" .++ %*= ;> ,1 8w pfzCCG  ABzzap 05 1< >; =*& @+X ",
" .o+ $&= ;> <1 7w pszMAG  ABbfat w3 11 >; -&& +oX ",
" .o@ %*= ;> <1 5w phzMZG  Anbhsp 03 1, >; =&% @OX ",
" .o+ $&= ;> <1 8w psznAG  ABzzsp w3 11 >; -&% @oX ",
" Xo+ %&= ;> 11 50 pfzMCG  ABbhap w5 11 >; -*% +oX ",
" .X+ $*= ;> ,1 8w psznBG  ZBzhae 75 1, >; =&% @@X ",
" .o+ &&= ;> <1 8w pflbZG  ZBbhap 05 1< >; -&& @oX ",
" .X+ $*= ;> <1 7w palbBG  Znzlap 03 1< >; =*% @oX ",
" .X+ %&= ;> ,1 5w pflbBG  ABbhae 05 1< >; =*% @+X ",
" .o+ %&= ;> <1 5w pslbBG  GBzhae 05 11 >; =*% @oX ",
" Xoo $*= ;> ,1 3w pfzbBG  ZCblap w3 3< >; -&% +OX ",
" .XO $&= ;> ,1 39 pazmZG  Gnzhap 93 1< >; -&& @+X ",
" .o+ $&= ;> 11 30 pfzmCG  ACnhae 07 1< >; =&% ooX ",
" .X+ $&= ;> ,1 70 pflnCG  ACjhap 03 1< >; =*& @@X ",
" .XO %&* ;> ,1 37 phlbBG  ZCbhap w3 1< >; -&% @oo ",
" .Xo $&= ;> ,1 3w pslbBA  Znbhat w5 1< >; =*% @+. ",
" XX@ $&= ;> <1 30 talbCG  ABbhat 03 1< >; -%& @oo ",
" .o+ $%= ;> ,1 30 pslbCG  AClfap w4 11 >; -&& @oX ",
" .o+ $&= ;> ,1 30 eazbCG  Znbhsp w6 1, >; =&% @+X ",
" .XO $&= ;> ,1 77 pahnBG  ABzhar 76 11 >; =*& @oX ",
" .X+ $&= -; <1 3w pazbBG  ABzhsp w3 3, >; -*& ++X ",
" .X+ $&= -> <1 30 pahbBG  ABmhar w3 1, >; =&% @+X ",
" .X+ $&= -> ,1 37 palbZG  ACbhap 05 1< >; -*% @oX ",
" .X+ %&* -> ,1 3w esfbBG  Znzlar w3 1< >; =&% @+X ",
" .Xo $&= -> ,< 30 palbBA  GBnhap 05 1< >; =&% @Oo ",
" .Xo $%= -> ,1 30 ppllCG  ZBbhae w3 11 >; -*& +O. ",
" .Xo $&= ;> ,1 30 pslbbA  ZBzhap 03 3< >; -&% +oo ",
" .XO $&* -; ,1 30 psfbBC  Znnhae w5 << >; =*& @O. ",
" .Xo $&= ;> ,1 30 pahbBG  ZBmhap w3 1< >; -%& +oX ",
" .Xo $%= ;; ,< 30 eahbBG  CBbhae 73 3< >; -&& @OX ",
" .Xo $&* ;; <1 30 pahbBA  ABzhsr 05 1, >; =&% +O. ",
" .Xo $&* -> ,1 37 palzCG  ZBblap 05 11 >; -&% @oo ",
" .XO $%* -> ,< 30 ealnBA  ZBzhap w5 1, >; -*& @OX ",
" .Xo $%= ;> ,1 30 ealzBA  ZBbfar 95 11 >; =&& +oX ",
" .X+ $&* -> ,1 30 pahzAA  FVblsp 05 1< >; -*& @+. ",
" .Xo $&* -> ,1 38 talnCG  Abbfsr w5 1< >; *&% @+o ",
" .Xo $%* -; ,1 30 rahnMA  ABzhar 05 1< >; =&% @OX ",
" .Xo $%* -; ,1 37 ephbCG  ABbfdr 05 11 >; -*% +oX ",
" .XO $&* -: ,1 38 pahzBZ  ZBbhap 97 3, >; =*% ++X ",
" .Xo $&* -; ,1 3w eshxMG  Anjhae 98 11 >; =*% @+X ",
" ..o $&* -; ,1 38 eahzCG  GBMhap w7 1, >; -*& @oX ",
" .Xo #&* -> ,< 38 ephnMC  ZBzhpp 97 1, >; =&% ++X ",
" ..o $&* -> ,< 38 palxMZ  GMbhae 88 1, >; -&& ++X ",
" .Xo $%* -> ,< 30 pahcnC  CCnhap w5 1, >; ==& @oX ",
" .Xo #&* -; ,1 30 rahxnG  ZCbhat 05 3, >; =&% @+X ",
" ..o #&* -; ,< 37 eahnBG  AMzhap 05 1< >; =*& @+X ",
" .Xo #&* -; ,< 35 eahbBZ  AMzlae w5 11 >; =*% @@X ",
" ..o #&* -> ,< 37 tahzMZ  GBnhap 05 1< >; =*% @oX "
};
