/* XPM */
static char *e7c9028584f34070d076b357bce52b604xTgrDhNqqsReERc[] = {
/* columns rows colors chars-per-pixel */
"50 50 35 1 ",
"  c black",
". c #794B1D",
"X c #7B4E21",
"o c #7E5225",
"O c #7F5528",
"+ c #805427",
"@ c #81562A",
"# c #855B2F",
"$ c #865D31",
"% c #885F34",
"& c #896136",
"* c #8C643A",
"= c #8F683E",
"- c #946E45",
"; c #957047",
": c #967149",
"> c #99754C",
", c #9F7D55",
"< c #A07E57",
"1 c #A07E58",
"2 c #A3825C",
"3 c #AA8B66",
"4 c #AD8E6A",
"5 c #AE906C",
"6 c #B39774",
"7 c #B49975",
"8 c #B79D7A",
"9 c #B89D7B",
"0 c #BAA17F",
"q c #BDA583",
"w c #BFA886",
"e c #C0A786",
"r c #C0A887",
"t c #C3AC8B",
"y c #C6B090",
/* pixels */
"                                                  ",
"........................................X....XX.X.",
".XX.XX.XXXXXXXXX.oXXo.XXXXXXXooXoXXoooXXXoXooXoooo",
"ooooooooo+ooooo+Ooooo+oo+++++++++o++o+O+++@+++++++",
"                                                  ",
"####$##$$$$$$$$$$$$#$$$$$$$$$$$$$$$$$$%$$$%$$%$%$%",
"%%&&&&&&&&&&%&&&&&&&&&*&&*%**&*&%*&&*&&*=&*%*&****",
"*******************==**==**=**===*=============**=",
"                                                  ",
"--------------;----------------::::;::::;-:;;-::::",
">:::>::::>::>::>>:>>>>>>>>:>>>>>>>>>>>>>>>>>>>>>>>",
"                                                  ",
",,,,,,,,,,,,,,,,1,,,,,,,,,1,,,,2,,,1,,<,<1,111122<",
"<221<,121222,2122221222<22222222222222222222222222",
"                                                  ",
"33333333333333333333333333333333333333434433343434",
"43445534444444443445445554454455545555555555555555",
"                                                  ",
"76766666666676677777777777777777787787887788887787",
"88788888888888889889999998988999999899899999999809",
"90900000900000q9q9q9qqq9q0q9q00q0q0qq00qqqqq9qqqqq",
"wqqqqqqqqqqwqqqwwwqwqqqqqqwwwwwwwwweewrrwweewertet",
"tttrtrrtrtttttttrtrrrtrttrtttttttttttttttttttttttt",
"ttttytttyyttyytytyyyytyyyyyyyyytyyyyytyytyyyyyyyyt",
"                                                  ",
"                                                  ",
"ttttyttyyttyytyttytttyttttytttttttttytyttytttttytt",
"tttttrrttrrrtrrtttetttrttrttttttrttttrtrttrttttrtt",
"qqqqqqqqeqqqqqweqqwqqqqwqwqqwqqqqqqwqqqqqqqqeqqqqw",
"000000009qq99q9900q90000009q00000000000000009q9q90",
"88088080888899888888998888888888989888888899888998",
"76666666777777777676677777767776776777777777777777",
"                                                  ",
"55555455445555555555555555555455555544555555555555",
"33333333433333434333333333333343343343343333333433",
"                                                  ",
"22222222222222222222222222222222222222222222222222",
"22,2222121<2122,11211111<2111211111211111,2<121111",
"                                                  ",
">>>>>>>>>>>>>>>>>>>>>>>>>>>>>>>>>>>>>>>>>>>>>>>>>>",
":::-:::-::;::::;:-:::;:::::-;:::::;:::;;::;::::;::",
"                                                  ",
"===================-==============================",
"************&*****&*******************************",
"%%&$&%%&&%%%%&&%%%%&%%&%%%&&&&&%%%&%&&%%%&%&%%%%%%",
"                                                  ",
"@+@@@@@@#++@#++@@@@@@@@@@++@@@@+@@+++@@++@@@@@+@@@",
"+OoOo++X+Ooooo+OooOOoOoO++o+o++o+oO++oOoOOooO+o+oo",
"XXXXXXXXXXoXXXXXXXXXXXXXo.Xo.oXXXXXXXXXXXXXXXXXXXX",
"                                                  "
};
