/* XPM */
static char *d1c2e7cb350a4354acf164583743937btCOI5SlsP4TNDVab[] = {
/* columns rows colors chars-per-pixel */
"50 50 2 1 ",
"  c black",
". c #A900B2",
/* pixels */
"                         .........................",
"                         .........................",
"                         .........................",
"                         .........................",
"                         .........................",
"                         .........................",
"                         .........................",
"                         .........................",
"                         .........................",
"                         .........................",
"                         .........................",
"                         .........................",
"                         .........................",
"                         .........................",
"                         .........................",
"                         .........................",
"                         .........................",
"                         .........................",
"                         .........................",
"                         .........................",
"                         .........................",
"                         .........................",
"                         .........................",
"                         .........................",
"                         .........................",
".........................                         ",
".........................                         ",
".........................                         ",
".........................                         ",
".........................                         ",
".........................                         ",
".........................                         ",
".........................                         ",
".........................                         ",
".........................                         ",
".........................                         ",
".........................                         ",
".........................                         ",
".........................                         ",
".........................                         ",
".........................                         ",
".........................                         ",
".........................                         ",
".........................                         ",
".........................                         ",
".........................                         ",
".........................                         ",
".........................                         ",
".........................                         ",
".........................                         "
};
