/* XPM */
static char *_854232772994733b01fd4107f1d2835GO5oeO5SEcVm7loy[] = {
/* columns rows colors chars-per-pixel */
"50 50 2 1 ",
"  c #54B79A",
". c #6CFFB9",
/* pixels */
".........................                         ",
".........................                         ",
".........................                         ",
".........................                         ",
".........................                         ",
".........................                         ",
".........................                         ",
".........................                         ",
".........................                         ",
".........................                         ",
".........................                         ",
".........................                         ",
".........................                         ",
".........................                         ",
".........................                         ",
".........................                         ",
".........................                         ",
".........................                         ",
".........................                         ",
".........................                         ",
".........................                         ",
".........................                         ",
".........................                         ",
".........................                         ",
".........................                         ",
"                         .........................",
"                         .........................",
"                         .........................",
"                         .........................",
"                         .........................",
"                         .........................",
"                         .........................",
"                         .........................",
"                         .........................",
"                         .........................",
"                         .........................",
"                         .........................",
"                         .........................",
"                         .........................",
"                         .........................",
"                         .........................",
"                         .........................",
"                         .........................",
"                         .........................",
"                         .........................",
"                         .........................",
"                         .........................",
"                         .........................",
"                         .........................",
"                         .........................",
};
